<svg width="20" height="24" viewBox="0 0 20 24" fill="none" xmlns="http://www.w3.org/2000/svg">
<path d="M10 11.755C13.3987 11.755 16.1538 9.12359 16.1538 5.87752C16.1538 2.63146 13.3987 0 10 0C6.60133 0 3.84615 2.63146 3.84615 5.87752C3.84615 9.12359 6.60133 11.755 10 11.755Z" fill="white"/>
<path d="M13.2051 14.2041H6.79487C3.07692 14.2041 0 17.1429 0 20.6939C0 21.551 0.384615 22.2857 1.15385 22.6531C2.30769 23.2653 4.8718 24 10 24C15.1282 24 17.6923 23.2653 18.8462 22.6531C19.4872 22.2857 20 21.551 20 20.6939C20 17.0204 16.9231 14.2041 13.2051 14.2041Z" fill="white"/>
</svg>
