<svg width="17" height="17" viewBox="0 0 17 17" fill="none" xmlns="http://www.w3.org/2000/svg">
<path fill-rule="evenodd" clip-rule="evenodd" d="M16 8.5C16 8.20829 15.7635 7.97181 15.4718 7.97181L9.02819 7.97181L9.02819 1.52819C9.02819 1.23648 8.79171 1 8.5 1C8.20829 1 7.97181 1.23648 7.97181 1.52819L7.97181 7.97181H1.52819C1.23648 7.97181 1 8.20829 1 8.5C1 8.79171 1.23648 9.02819 1.52819 9.02819L7.97181 9.02819L7.97181 15.4718C7.97181 15.7635 8.20829 16 8.5 16C8.79171 16 9.02819 15.7635 9.02819 15.4718L9.02819 9.02819L15.4718 9.02819C15.7635 9.02819 16 8.79171 16 8.5Z" fill="#FE7900" stroke="#FE7900" stroke-linecap="round" stroke-linejoin="round"/>
</svg>
