<svg width="56" height="56" viewBox="0 0 56 56" fill="none" xmlns="http://www.w3.org/2000/svg">
<g filter="url(#filter0_d_679_745)">
<path d="M36.3333 11.85L26.9167 6.78333C25.9167 6.25 24.7333 6.25 23.7333 6.78333L14.3333 11.85C13.65 12.2333 13.2167 12.9667 13.2167 13.7667C13.2167 14.5833 13.6333 15.3167 14.3333 15.6833L23.75 20.75C24.25 21.0167 24.8 21.15 25.3333 21.15C25.8667 21.15 26.4333 21.0167 26.9167 20.75L36.3333 15.6833C37.0167 15.3167 37.45 14.5833 37.45 13.7667C37.45 12.9667 37.0167 12.2333 36.3333 11.85Z" fill="white"/>
<path d="M22.2 22.5167L13.45 18.15C12.7667 17.8 12 17.85 11.35 18.2333C10.7167 18.6333 10.3333 19.3167 10.3333 20.0667V28.3333C10.3333 29.7667 11.1333 31.05 12.4167 31.7L21.1667 36.0667C21.4667 36.2167 21.8 36.3 22.1333 36.3C22.5167 36.3 22.9167 36.1833 23.2667 35.9833C23.9 35.5833 24.2833 34.9 24.2833 34.15V25.8833C24.2667 24.45 23.4667 23.1667 22.2 22.5167Z" fill="white"/>
<path d="M40.3333 20.0667V24.1667C39.5333 23.9333 38.6833 23.8333 37.8333 23.8333C35.5667 23.8333 33.35 24.6167 31.6 26.0167C29.2 27.9 27.8333 30.75 27.8333 33.8333C27.8333 34.65 27.9333 35.4667 28.15 36.25C27.9 36.2167 27.65 36.1167 27.4167 35.9667C26.7833 35.5833 26.4 34.9 26.4 34.15V25.8833C26.4 24.45 27.2 23.1667 28.4667 22.5167L37.2167 18.15C37.9 17.8 38.6667 17.85 39.3167 18.2333C39.95 18.6333 40.3333 19.3167 40.3333 20.0667Z" fill="white"/>
<path d="M43.6667 29.1667C43.6667 29.15 43.65 29.1333 43.6333 29.1167C43.5667 29.0167 43.4833 28.9167 43.4 28.8333C43.3833 28.8167 43.3667 28.7833 43.35 28.7667C42 27.2667 40.0167 26.3333 37.8333 26.3333C35.7333 26.3333 33.8167 27.2 32.45 28.6C31.1333 29.95 30.3333 31.8 30.3333 33.8333C30.3333 35.2333 30.7333 36.5667 31.4167 37.7C31.7833 38.3167 32.25 38.8833 32.7833 39.35C32.8167 39.3667 32.8333 39.3833 32.85 39.4C32.9333 39.4833 33.0167 39.55 33.1167 39.6333C33.1167 39.6333 33.1167 39.6333 33.1333 39.6333C33.15 39.65 33.1667 39.6667 33.1833 39.6667C34.4333 40.7167 36.05 41.3333 37.8333 41.3333C40.5667 41.3333 42.95 39.8667 44.25 37.7C44.6333 37.05 44.9333 36.3333 45.1167 35.5833C45.2667 35.0167 45.3333 34.4333 45.3333 33.8333C45.3333 32.0667 44.7167 30.4333 43.6667 29.1667ZM40.6333 35.05H39.0833V36.6667C39.0833 37.35 38.5167 37.9167 37.8333 37.9167C37.15 37.9167 36.5833 37.35 36.5833 36.6667V35.05H35.0333C34.35 35.05 33.7833 34.4833 33.7833 33.8C33.7833 33.1167 34.35 32.55 35.0333 32.55H36.5833V31.0667C36.5833 30.3833 37.15 29.8167 37.8333 29.8167C38.5167 29.8167 39.0833 30.3833 39.0833 31.0667V32.55H40.6333C41.3167 32.55 41.8833 33.1167 41.8833 33.8C41.8833 34.4833 41.3333 35.05 40.6333 35.05Z" fill="white"/>
</g>
<defs>
<filter id="filter0_d_679_745" x="0.333252" y="0.383301" width="55" height="54.95" filterUnits="userSpaceOnUse" color-interpolation-filters="sRGB">
<feFlood flood-opacity="0" result="BackgroundImageFix"/>
<feColorMatrix in="SourceAlpha" type="matrix" values="0 0 0 0 0 0 0 0 0 0 0 0 0 0 0 0 0 0 127 0" result="hardAlpha"/>
<feOffset dy="4"/>
<feGaussianBlur stdDeviation="5"/>
<feComposite in2="hardAlpha" operator="out"/>
<feColorMatrix type="matrix" values="0 0 0 0 0.996078 0 0 0 0 0.47451 0 0 0 0 0 0 0 0 0.5 0"/>
<feBlend mode="multiply" in2="BackgroundImageFix" result="effect1_dropShadow_679_745"/>
<feBlend mode="normal" in="SourceGraphic" in2="effect1_dropShadow_679_745" result="shape"/>
</filter>
</defs>
</svg>
