<svg width="22" height="32" viewBox="0 0 22 32" fill="none" xmlns="http://www.w3.org/2000/svg">
<path d="M16.5 0.251953H5.5C4.04131 0.251953 2.64236 0.831416 1.61091 1.86287C0.579463 2.89432 0 4.29326 0 5.75195V29.897C0.00170225 30.2271 0.0925272 30.5507 0.262884 30.8335C0.43324 31.1163 0.676805 31.3479 0.967859 31.5037C1.25891 31.6596 1.58665 31.7339 1.91647 31.7189C2.24628 31.704 2.56594 31.6002 2.84167 31.4186L11 25.9186L19.1583 31.4186C19.4341 31.6002 19.7537 31.704 20.0835 31.7189C20.4133 31.7339 20.7411 31.6596 21.0321 31.5037C21.3232 31.3479 21.5668 31.1163 21.7371 30.8335C21.9075 30.5507 21.9983 30.2271 22 29.897V5.75195C22 4.29326 21.4205 2.89432 20.3891 1.86287C19.3576 0.831416 17.9587 0.251953 16.5 0.251953ZM14.6667 13.7086H12.375V16.0003C12.375 16.365 12.2301 16.7147 11.9723 16.9726C11.7144 17.2304 11.3647 17.3753 11 17.3753C10.6353 17.3753 10.2856 17.2304 10.0277 16.9726C9.76987 16.7147 9.625 16.365 9.625 16.0003V13.7086H7.33333C6.96866 13.7086 6.61893 13.5638 6.36106 13.3059C6.1032 13.048 5.95833 12.6983 5.95833 12.3336C5.95833 11.9689 6.1032 11.6192 6.36106 11.3614C6.61893 11.1035 6.96866 10.9586 7.33333 10.9586H9.625V8.66695C9.625 8.30228 9.76987 7.95254 10.0277 7.69468C10.2856 7.43682 10.6353 7.29195 11 7.29195C11.3647 7.29195 11.7144 7.43682 11.9723 7.69468C12.2301 7.95254 12.375 8.30228 12.375 8.66695V10.9586H14.6667C15.0313 10.9586 15.3811 11.1035 15.6389 11.3614C15.8968 11.6192 16.0417 11.9689 16.0417 12.3336C16.0417 12.6983 15.8968 13.048 15.6389 13.3059C15.3811 13.5638 15.0313 13.7086 14.6667 13.7086Z" fill="#D9D9D9"/>
</svg>
