<?xml version="1.0" encoding="UTF-8"?>
<svg xmlns="http://www.w3.org/2000/svg" version="1.1" viewBox="0 0 400 300">
  <defs>
    <style>
      .cls-1 {
        fill: currentColor;
      }

      .cls-2 {
        fill: currentColor;
      }
    </style>
  </defs>
  <!-- Generator: Adobe Illustrator 28.7.1, SVG Export Plug-In . SVG Version: 1.2.0 Build 142)  -->
  <g>
    <g id="Layer_1">
      <g>
        <g>
          <rect class="cls-1" x="201.6" y="158.6" width="47.6" height="47.6" rx="23.8" ry="23.8" transform="translate(-63 212.9) rotate(-45)"/>
          <path class="cls-2" d="M225.6,89.9h0s-27,0-27,0l39.5-24.5c11.2-6.9,14.6-21.6,7.7-32.8h0c-6.9-11.2-21.6-14.6-32.8-7.7l-50.9,31.6c-11.2,6.9-14.6,21.6-7.7,32.8,4.6,7.4,12.7,11.4,20.8,11.2h0s26.4,0,26.4,0l-39.5,24.5c-11.2,6.9-14.6,21.6-7.7,32.8,6.9,11.2,21.6,14.6,32.8,7.7l50.9-31.6c11.2-6.9,14.6-21.6,7.7-32.8-4.5-7.2-12.2-11.2-20.1-11.2Z"/>
        </g>
        <g>
          <path d="M41.3,267.7c0-2.1-.6-3.6-1.7-4.7-1.1-1.1-3.1-2.2-6-3.2-2.9-1-5.1-2.1-6.7-3.3-1.5-1.1-2.7-2.4-3.5-3.9-.8-1.5-1.1-3.1-1.1-5,0-3.3,1.1-6,3.3-8.1,2.2-2.1,5-3.2,8.6-3.2s4.6.5,6.5,1.6c1.9,1.1,3.3,2.6,4.4,4.5,1,1.9,1.5,4,1.5,6.4h-5.2c0-2.6-.6-4.5-1.8-5.9-1.2-1.4-3-2.1-5.3-2.1s-3.7.6-4.9,1.8c-1.2,1.2-1.7,2.8-1.7,4.9s.6,3.2,1.9,4.4c1.2,1.2,3.2,2.2,5.8,3.2,4.1,1.3,7,3,8.7,5,1.7,2,2.6,4.5,2.6,7.7s-1.1,6-3.3,8c-2.2,2-5.1,3-8.9,3s-4.6-.5-6.7-1.6c-2-1-3.6-2.5-4.8-4.4s-1.7-4.1-1.7-6.5h5.2c0,2.6.7,4.5,2.1,6,1.4,1.4,3.4,2.1,5.8,2.1s4-.6,5.2-1.8c1.2-1.2,1.7-2.8,1.7-4.8Z" fill="currentColor"/>
          <path d="M77.9,236.8v29.4c0,3.9-1.2,7-3.4,9.2-2.2,2.2-5.3,3.3-9.3,3.3s-7.2-1.1-9.4-3.2-3.3-5.3-3.3-9.3v-29.4h5.2v29.1c0,2.8.6,4.9,1.8,6.2,1.2,1.4,3.1,2.1,5.7,2.1s4.6-.7,5.7-2.1c1.2-1.4,1.8-3.4,1.8-6.2v-29.1h5.2Z" fill="currentColor"/>
          <path d="M91.1,262v16.2h-5.2v-41.3h13.2c3.8,0,6.9,1.1,9,3.4s3.3,5.4,3.3,9.2-1,7-3.1,9.2c-2.1,2.1-5,3.3-8.8,3.3h-8.3ZM91.1,257.5h8c2.3,0,4.1-.7,5.3-2.1s1.8-3.4,1.8-5.9-.6-4.5-1.9-6c-1.3-1.5-3-2.2-5.2-2.2h-8v16.2Z" fill="currentColor"/>
          <path d="M123.3,262v16.2h-5.2v-41.3h13.2c3.8,0,6.9,1.1,9,3.4s3.3,5.4,3.3,9.2-1,7-3.1,9.2c-2.1,2.1-5,3.3-8.8,3.3h-8.3ZM123.3,257.5h8c2.3,0,4.1-.7,5.3-2.1s1.8-3.4,1.8-5.9-.6-4.5-1.9-6c-1.3-1.5-3-2.2-5.2-2.2h-8v16.2Z" fill="currentColor"/>
          <path d="M155.6,273.7h16.2v4.5h-21.4v-41.3h5.2v36.8Z" fill="currentColor"/>
          <path d="M181.9,257.6l8.5-20.7h5.9l-11.7,25.9v15.4h-5.2v-15.4l-11.7-25.9h5.9l8.5,20.7Z" fill="currentColor"/>
          <path class="cls-2" d="M221.6,236.8l10.8,33.7,10.8-33.7h6.7v41.3h-5.2v-16.1l.5-16.1-10.8,32.2h-4l-10.7-32.1.5,16v16.1h-5.2v-41.3h6.7Z"/>
          <path class="cls-2" d="M278.1,267.3h-14l-3.2,10.8h-5.3l13.3-41.3h4.5l13.3,41.3h-5.3l-3.3-10.8ZM265.5,262.9h11.3l-5.6-18.8-5.6,18.8Z"/>
          <path class="cls-2" d="M312.8,241.3h-10.9v36.8h-5.2v-36.8h-10.8v-4.5h26.9v4.5Z"/>
          <path class="cls-2" d="M344.7,265c-.2,4.4-1.5,7.8-3.7,10.2-2.3,2.4-5.5,3.5-9.6,3.5s-7.4-1.6-9.9-4.7-3.7-7.4-3.7-12.8v-7.5c0-5.4,1.3-9.6,3.8-12.7,2.5-3.1,5.9-4.7,10.3-4.7s7.1,1.2,9.3,3.6,3.4,5.8,3.6,10.2h-5.2c-.2-3.4-.9-5.8-2.1-7.2s-3-2.2-5.4-2.2-5,1.1-6.5,3.3-2.3,5.4-2.3,9.7v7.6c0,4.2.7,7.4,2.1,9.6,1.4,2.2,3.5,3.3,6.2,3.3s4.7-.7,5.8-2c1.2-1.3,1.9-3.8,2.2-7.2h5.2Z"/>
          <path class="cls-2" d="M378.8,278.1h-5.2v-19.1h-16.6v19.1h-5.2v-41.3h5.2v17.8h16.6v-17.8h5.2v41.3Z"/>
        </g>
      </g>
    </g>
  </g>
</svg>