<svg width="24" height="30" viewBox="0 0 24 30" fill="none" xmlns="http://www.w3.org/2000/svg">
<path d="M20.0441 15.6592C20.0855 20.1197 23.9571 21.604 24 21.6229C23.9673 21.7276 23.3814 23.7383 21.9602 25.8151C20.7317 27.6107 19.4567 29.3997 17.4482 29.4367C15.4746 29.4731 14.8399 28.2664 12.5836 28.2664C10.3279 28.2664 9.62277 29.3997 7.75454 29.4731C5.81578 29.5464 4.33944 27.5314 3.10073 25.7425C0.569559 22.0831 -1.36478 15.4018 1.23255 10.8919C2.52284 8.65227 4.8287 7.23404 7.3315 7.19767C9.2353 7.16135 11.0323 8.47849 12.1961 8.47849C13.3592 8.47849 15.5429 6.89452 17.8385 7.12714C18.7996 7.16714 21.4972 7.51535 23.2294 10.0509C23.0899 10.1374 20.0106 11.93 20.0441 15.6592ZM16.3349 4.70613C17.3642 3.4602 18.057 1.72576 17.868 0C16.3843 0.0596297 14.5903 0.988668 13.5261 2.23391C12.5724 3.33663 11.7371 5.1016 11.9625 6.7932C13.6162 6.92114 15.3056 5.95284 16.3349 4.70613Z" fill="white"/>
</svg>
