<svg width="17" height="18" viewBox="0 0 17 18" fill="none" xmlns="http://www.w3.org/2000/svg">
<path d="M14.3125 9.61556L7.90169 16.0264C7.19842 16.7297 6.24459 17.1247 5.25002 17.1247C4.25546 17.1247 3.30162 16.7297 2.59836 16.0264C1.89509 15.3231 1.5 14.3693 1.5 13.3747C1.5 12.3802 1.89509 11.4263 2.59836 10.7231L11.715 1.60639C11.9472 1.37428 12.2229 1.19018 12.5263 1.0646C12.8296 0.939028 13.1548 0.874434 13.4831 0.874512C13.8114 0.874589 14.1365 0.939336 14.4399 1.06505C14.7432 1.19077 15.0187 1.375 15.2509 1.60722C15.483 1.83944 15.6671 2.11511 15.7926 2.41848C15.9182 2.72185 15.9828 3.04698 15.9827 3.37531C15.9827 3.70365 15.9179 4.02875 15.7922 4.33206C15.6665 4.63537 15.4822 4.91095 15.25 5.14306L6.12669 14.2664C5.89001 14.4933 5.57366 14.6173 5.24581 14.6131C4.91797 14.609 4.60488 14.4762 4.37402 14.2433C4.14317 14.0105 4.01303 13.6963 4.01166 13.3685C4.01029 13.0406 4.13779 12.7253 4.36669 12.4906L10.875 5.98222M6.13419 14.2581L6.12586 14.2664" stroke="#797979" stroke-width="1.25" stroke-linecap="round" stroke-linejoin="round"/>
</svg>
