<svg xmlns="http://www.w3.org/2000/svg" width="48" height="48" viewBox="0 0 48 48">
    <defs>
        <filter id="fpucki6axa" x="0" y="0" width="48" height="48" filterUnits="userSpaceOnUse">
            <feOffset dy="3"/>
            <feGaussianBlur stdDeviation="3" result="blur"/>
            <feFlood flood-color="#cbcbcb" flood-opacity=".341"/>
            <feComposite operator="in" in2="blur"/>
            <feComposite in="SourceGraphic"/>
        </filter>
    </defs>
    <g data-name="Group 144">
        <g style="filter:url(#fpucki6axa)">
            <circle data-name="Ellipse 3" cx="15" cy="15" r="15" transform="translate(9.002 6.002)" style="fill:#f5f5f5"/>
        </g>
        <g data-name="01 align center">
            <path data-name="Path 112" d="M12.5 8.545 11.132 3.6a4.917 4.917 0 0 0-9.54.248L.531 8.624a1.583 1.583 0 0 0 1.545 1.926h1.9a2.638 2.638 0 0 0 5.17 0h1.834a1.583 1.583 0 0 0 1.525-2zM6.564 11.6a1.583 1.583 0 0 1-1.486-1.055H8.05A1.583 1.583 0 0 1 6.564 11.6zM11.4 9.286a.524.524 0 0 1-.422.208h-8.9a.528.528 0 0 1-.515-.642l1.059-4.774a3.862 3.862 0 0 1 7.491-.2l1.372 4.944a.524.524 0 0 1-.086.461z" transform="translate(17.5 14.346)" style="fill:#f96900"/>
        </g>
    </g>
</svg>
