<svg width="12" height="18" viewBox="0 0 12 18" fill="none" xmlns="http://www.w3.org/2000/svg">
<path d="M9 0.410156H3C2.20435 0.410156 1.44129 0.726227 0.87868 1.28884C0.316071 1.85144 0 2.61451 0 3.41016V16.5802C0.0009285 16.7602 0.0504694 16.9367 0.143391 17.091C0.236313 17.2452 0.369167 17.3716 0.527923 17.4566C0.68668 17.5416 0.865447 17.5821 1.04535 17.574C1.22525 17.5658 1.3996 17.5092 1.55 17.4102L6 14.4102L10.45 17.4102C10.6004 17.5092 10.7748 17.5658 10.9547 17.574C11.1346 17.5821 11.3133 17.5416 11.4721 17.4566C11.6308 17.3716 11.7637 17.2452 11.8566 17.091C11.9495 16.9367 11.9991 16.7602 12 16.5802V3.41016C12 2.61451 11.6839 1.85144 11.1213 1.28884C10.5587 0.726227 9.79565 0.410156 9 0.410156ZM8 7.75016H6.75V9.00016C6.75 9.19907 6.67098 9.38983 6.53033 9.53049C6.38968 9.67114 6.19891 9.75016 6 9.75016C5.80109 9.75016 5.61032 9.67114 5.46967 9.53049C5.32902 9.38983 5.25 9.19907 5.25 9.00016V7.75016H4C3.80109 7.75016 3.61032 7.67114 3.46967 7.53049C3.32902 7.38983 3.25 7.19907 3.25 7.00016C3.25 6.80124 3.32902 6.61048 3.46967 6.46983C3.61032 6.32917 3.80109 6.25016 4 6.25016H5.25V5.00016C5.25 4.80124 5.32902 4.61048 5.46967 4.46983C5.61032 4.32917 5.80109 4.25016 6 4.25016C6.19891 4.25016 6.38968 4.32917 6.53033 4.46983C6.67098 4.61048 6.75 4.80124 6.75 5.00016V6.25016H8C8.19891 6.25016 8.38968 6.32917 8.53033 6.46983C8.67098 6.61048 8.75 6.80124 8.75 7.00016C8.75 7.19907 8.67098 7.38983 8.53033 7.53049C8.38968 7.67114 8.19891 7.75016 8 7.75016Z" fill="#828282"/>
</svg>
