<svg width="26" height="24" viewBox="0 0 26 24" fill="none" xmlns="http://www.w3.org/2000/svg">
<path d="M25.2 7.39394L23.8412 16C23.5941 17.697 22.2353 18.7879 20.5059 18.7879H8.64706C7.04118 18.7879 5.55882 17.5758 5.31176 16L3.82941 5.93939L3.45882 3.15152C3.33529 2.42424 2.71765 1.93939 1.85294 1.93939H0.988235C0.494117 1.93939 0 1.45455 0 0.969697C0 0.484848 0.494117 0 0.988235 0H1.85294C3.58235 0 5.0647 1.21212 5.18823 2.90909L5.43529 4.84848H22.9765C23.5941 4.84848 24.2118 5.09091 24.5823 5.57576C25.0765 6.06061 25.2 6.78788 25.2 7.39394Z" fill="white"/>
<path d="M20.7529 24C21.4352 24 21.9882 23.4573 21.9882 22.7879C21.9882 22.1184 21.4352 21.5758 20.7529 21.5758C20.0707 21.5758 19.5176 22.1184 19.5176 22.7879C19.5176 23.4573 20.0707 24 20.7529 24Z" fill="white"/>
<path d="M8.4 24C9.08223 24 9.63529 23.4573 9.63529 22.7879C9.63529 22.1184 9.08223 21.5758 8.4 21.5758C7.71777 21.5758 7.16471 22.1184 7.16471 22.7879C7.16471 23.4573 7.71777 24 8.4 24Z" fill="white"/>
</svg>
