<svg width="22" height="22" viewBox="0 0 22 22" fill="none" xmlns="http://www.w3.org/2000/svg">
<path d="M18.0483 3.96028C15.3702 1.29123 11.0273 1.29123 8.3673 3.96028C6.49444 5.81504 5.93349 8.48409 6.6573 10.8365L2.40492 15.0889C2.10635 15.3965 1.89825 16.0027 1.96158 16.4369L2.23301 18.4093C2.33254 19.0608 2.93873 19.676 3.59016 19.7665L5.56254 20.0379C5.99682 20.1012 6.60301 19.9022 6.91063 19.5855L7.65254 18.8436C7.83349 18.6717 7.83349 18.3822 7.65254 18.2012L5.8973 16.446C5.63492 16.1836 5.63492 15.7493 5.8973 15.4869C6.15968 15.2246 6.59397 15.2246 6.85635 15.4869L8.62063 17.2512C8.79254 17.4231 9.08206 17.4231 9.25396 17.2512L11.1721 15.3422C13.5154 16.075 16.1844 15.505 18.0483 13.6503C20.7173 10.9812 20.7173 6.62933 18.0483 3.96028ZM13.2621 10.9993C12.0135 10.9993 11.0002 9.986 11.0002 8.73742C11.0002 7.48885 12.0135 6.47552 13.2621 6.47552C14.5106 6.47552 15.524 7.48885 15.524 8.73742C15.524 9.986 14.5106 10.9993 13.2621 10.9993Z" fill="#FE7900"/>
</svg>
