<svg width="18" height="21" viewBox="0 0 18 21" fill="none" xmlns="http://www.w3.org/2000/svg">
<path d="M16.0074 3.6429C14.2556 1.7679 11.6793 0.62207 9 0.62207C6.3207 0.62207 3.74444 1.66374 1.99259 3.6429C0.549889 5.30957 -0.171462 7.3929 0.0346381 9.47624C0.0346381 9.8929 0.137688 10.3096 0.240738 10.6221C1.16819 14.9971 5.9085 18.8512 7.9695 20.3096C8.27865 20.5179 8.5878 20.6221 9 20.6221C9.4122 20.6221 9.72135 20.5179 10.0305 20.3096C11.9885 18.8512 16.8318 14.9971 17.7593 10.6221C17.8623 10.3096 17.8623 9.8929 17.9654 9.47624C18.1715 7.3929 17.4501 5.30957 16.0074 3.6429ZM9 12.6012C7.45425 12.6012 6.1146 11.3512 6.1146 9.68457C6.1146 8.0179 7.3512 6.7679 9 6.7679C10.6488 6.7679 11.8854 8.0179 11.8854 9.68457C11.8854 11.3512 10.5458 12.6012 9 12.6012Z" fill="#FF8A1F" fill-opacity="0.5"/>
</svg>
