<svg width="36" height="36" viewBox="0 0 36 36" fill="none" xmlns="http://www.w3.org/2000/svg">
<rect width="36" height="36" rx="18" fill="#FE7900" fill-opacity="0.1"/>
<path d="M27.09 12.9795C26.24 12.0395 24.82 11.5695 22.76 11.5695H22.52V11.5295C22.52 9.84953 22.52 7.76953 18.76 7.76953H17.24C13.48 7.76953 13.48 9.85953 13.48 11.5295V11.5795H13.24C11.17 11.5795 9.76001 12.0495 8.91001 12.9895C7.92001 14.0895 7.95001 15.5695 8.05001 16.5795L8.06001 16.6495L8.13746 17.4628C8.15173 17.6126 8.23239 17.7479 8.35828 17.8303C8.59809 17.9872 8.99943 18.2459 9.24001 18.3795C9.38001 18.4695 9.53001 18.5495 9.68001 18.6295C11.39 19.5695 13.27 20.1995 15.18 20.5095C15.27 21.4495 15.68 22.5495 17.87 22.5495C20.06 22.5495 20.49 21.4595 20.56 20.4895C22.6 20.1595 24.57 19.4495 26.35 18.4095C26.41 18.3795 26.45 18.3495 26.5 18.3195C26.8967 18.0953 27.3083 17.819 27.6835 17.5484C27.7965 17.4668 27.8688 17.3408 27.8841 17.2023L27.9 17.0595L27.95 16.5895C27.96 16.5295 27.96 16.4795 27.97 16.4095C28.05 15.3995 28.03 14.0195 27.09 12.9795ZM19.09 19.8295C19.09 20.8895 19.09 21.0495 17.86 21.0495C16.63 21.0495 16.63 20.8595 16.63 19.8395V18.5795H19.09V19.8295ZM14.91 11.5695V11.5295C14.91 9.82953 14.91 9.19953 17.24 9.19953H18.76C21.09 9.19953 21.09 9.83953 21.09 11.5295V11.5795H14.91V11.5695Z" fill="#FE7900"/>
<path d="M26.8735 19.7339C27.2271 19.5656 27.6343 19.8459 27.5989 20.2359L27.24 24.1897C27.03 26.1897 26.21 28.2297 21.81 28.2297H14.19C9.79 28.2297 8.97 26.1897 8.76 24.1997L8.41928 20.4519C8.38424 20.0664 8.7822 19.7865 9.13484 19.946C10.2743 20.4615 12.3774 21.3761 13.6766 21.7164C13.8409 21.7594 13.9738 21.877 14.0457 22.0309C14.6527 23.329 15.9691 24.0197 17.87 24.0197C19.7521 24.0197 21.0852 23.3024 21.6941 22.0011C21.7662 21.8471 21.8992 21.7296 22.0636 21.6863C23.4432 21.3233 25.6818 20.301 26.8735 19.7339Z" fill="#FE7900"/>
</svg>
