<svg width="40" height="40" viewBox="9 5 22 22" fill="none" xmlns="http://www.w3.org/2000/svg">
<g filter="url(#filter0_d_452_738)">
<path d="M17.0408 6.50515C16.2245 6.30313 15.2041 6.10111 14.3878 6.10111C13.5714 6.10111 12.551 6.30313 11.7347 6.50515C11.0204 6.60616 10.5102 7.21222 10.4082 7.91929C10.3061 8.72737 10 10.3435 10 11.4546C10 12.5658 10.2041 13.9799 10.3061 14.99C10.4082 15.6971 10.9184 16.3031 11.6327 16.4041C12.3469 16.6062 13.4694 16.7072 14.2857 16.7072C15.102 16.7072 16.1224 16.5051 16.9388 16.4041C17.6531 16.3031 18.1633 15.6971 18.2653 14.99C18.4694 13.9799 18.5714 12.5658 18.5714 11.4546C18.5714 10.3435 18.3673 8.72737 18.2653 7.91929C18.2653 7.21222 17.7551 6.60616 17.0408 6.50515Z" fill="white"/>
<path d="M28.2653 15.5959C27.551 15.3939 26.4286 15.2929 25.6123 15.2929C24.7959 15.2929 23.7755 15.4949 22.9592 15.5959C22.2449 15.6969 21.7347 16.303 21.6327 17.0101C21.4286 18.0202 21.3265 19.4343 21.3265 20.5454C21.3265 21.6565 21.5306 23.0707 21.6327 24.0808C21.7347 24.7878 22.2449 25.3939 22.9592 25.4949C23.6735 25.6969 24.7959 25.7979 25.6123 25.7979C26.4286 25.7979 27.449 25.5959 28.2653 25.4949C28.9796 25.3939 29.4898 24.7878 29.5918 24.0808C29.7959 23.0707 29.898 21.6565 29.898 20.5454C29.898 19.4343 29.7959 18.0202 29.5918 17.0101C29.4898 16.303 28.9796 15.6969 28.2653 15.5959Z" fill="white"/>
<path d="M17.1429 19.6363C16.3265 19.4343 15.3061 19.3333 14.3878 19.3333C13.4694 19.3333 12.449 19.5353 11.6327 19.6363C11.0204 19.7373 10.5102 20.2424 10.3061 20.8484C10.102 21.5555 10 22.1616 10 22.6666C10 23.1717 10.102 23.6767 10.3061 24.4848C10.5102 25.0909 11.0204 25.4949 11.6327 25.6969C12.449 25.8989 13.4694 26 14.3878 26C15.3061 26 16.3265 25.7979 17.1429 25.6969C17.7551 25.5959 18.2653 25.0909 18.4694 24.4848C18.6735 23.7777 18.7755 23.1717 18.7755 22.6666C18.7755 22.1616 18.6735 21.6565 18.4694 20.8484C18.2653 20.1414 17.7551 19.7373 17.1429 19.6363Z" fill="white"/>
<path d="M22.8571 12.3636C23.6735 12.5657 24.6939 12.6667 25.6122 12.6667C26.5306 12.6667 27.551 12.4646 28.3673 12.3636C28.9796 12.2626 29.4898 11.7576 29.6939 11.1515C29.898 10.4444 30 9.83838 30 9.33333C30 8.82828 29.898 8.32323 29.6939 7.51515C29.4898 6.90909 28.9796 6.50505 28.3673 6.30303C27.551 6.10101 26.5306 6 25.6122 6C24.6939 6 23.6735 6.20202 22.8571 6.30303C22.2449 6.40404 21.7347 6.90909 21.5306 7.51515C21.3265 8.22222 21.2245 8.82828 21.2245 9.33333C21.2245 9.83838 21.3265 10.3434 21.5306 11.1515C21.7347 11.8586 22.2449 12.2626 22.8571 12.3636Z" fill="white"/>
</g>
<defs>
<filter id="filter0_d_452_738" x="0" y="0" width="40" height="40" filterUnits="userSpaceOnUse" color-interpolation-filters="sRGB">
<feFlood flood-opacity="0" result="BackgroundImageFix"/>
<feColorMatrix in="SourceAlpha" type="matrix" values="0 0 0 0 0 0 0 0 0 0 0 0 0 0 0 0 0 0 127 0" result="hardAlpha"/>
<feOffset dy="4"/>
<feGaussianBlur stdDeviation="5"/>
<feComposite in2="hardAlpha" operator="out"/>
<feColorMatrix type="matrix" values="0 0 0 0 1 0 0 0 0 0.541176 0 0 0 0 0.121569 0 0 0 0.5 0"/>
<feBlend mode="multiply" in2="BackgroundImageFix" result="effect1_dropShadow_452_738"/>
<feBlend mode="normal" in="SourceGraphic" in2="effect1_dropShadow_452_738" result="shape"/>
</filter>
</defs>
</svg>
