<svg width="105" height="110" viewBox="0 0 105 110" fill="none" xmlns="http://www.w3.org/2000/svg">
<g filter="url(#filter0_d_3241_4740)">
<path d="M41.7085 49.2308C41.7085 52.6154 41.7085 57.3846 41.7085 59.6923C41.8639 61.6923 42.0192 64.3077 42.1745 66.1538C42.3298 68.3077 44.1937 70 46.3683 70H57.8624C60.0369 70 61.9008 68.3077 62.0562 66.1538C62.2115 64.3077 62.3668 61.6923 62.5221 59.6923C62.6775 57.3846 62.5221 52.6154 62.5221 49.2308H41.7085Z" fill="#FA4040"/>
<path d="M62.9882 44.6154H59.105L57.8624 42.3077C57.0858 40.9231 55.6879 40 54.1346 40H50.4068C48.8535 40 47.3003 40.9231 46.679 42.3077L45.1257 44.6154H41.2426C40.6213 44.6154 40 45.2308 40 45.8462C40 46.4615 40.6213 47.0769 41.2426 47.0769H62.9882C63.6095 47.0769 64.2308 46.6154 64.2308 45.8462C64.2308 45.0769 63.6095 44.6154 62.9882 44.6154ZM47.7663 44.6154L48.5429 43.3846C48.8535 42.7692 49.4749 42.3077 50.2515 42.3077H53.9793C54.7559 42.3077 55.3772 42.6154 55.6879 43.3846L56.4645 44.6154H47.7663Z" fill="#FA4040"/>
</g>
<defs>
<filter id="filter0_d_3241_4740" x="0" y="0" width="104.231" height="110" filterUnits="userSpaceOnUse" color-interpolation-filters="sRGB">
<feFlood flood-opacity="0" result="BackgroundImageFix"/>
<feColorMatrix in="SourceAlpha" type="matrix" values="0 0 0 0 0 0 0 0 0 0 0 0 0 0 0 0 0 0 127 0" result="hardAlpha"/>
<feOffset/>
<feGaussianBlur stdDeviation="20"/>
<feComposite in2="hardAlpha" operator="out"/>
<feColorMatrix type="matrix" values="0 0 0 0 0.980392 0 0 0 0 0.25098 0 0 0 0 0.25098 0 0 0 1 0"/>
<feBlend mode="normal" in2="BackgroundImageFix" result="effect1_dropShadow_3241_4740"/>
<feBlend mode="normal" in="SourceGraphic" in2="effect1_dropShadow_3241_4740" result="shape"/>
</filter>
</defs>
</svg>
