<svg width="14" height="16" viewBox="0 0 14 16" fill="none" xmlns="http://www.w3.org/2000/svg">
<path d="M8.99273 5.57584L8.74109 12.1211M5.25891 12.1211L5.00727 5.57584M12.2567 3.24136C12.5055 3.27918 12.7527 3.31918 13 3.36208M12.2567 3.24136L11.48 13.3378C11.4483 13.7489 11.2626 14.1328 10.96 14.4129C10.6574 14.6929 10.2603 15 9.848 14.9998H4.152C3.73971 15 3.34256 14.6929 3.03999 14.4129C2.73741 14.1328 2.5517 13.7489 2.52 13.3378L1.74327 3.24136M12.2567 3.24136C11.4174 3.11447 10.5736 3.01816 9.72727 2.95264M1.74327 3.24136C1.49455 3.27845 1.24727 3.31845 1 3.36136M1.74327 3.24136C2.58264 3.11447 3.42635 3.01816 4.27273 2.95264M9.72727 2.95264V2.28648C9.72727 1.42832 9.06545 0.7127 8.20727 0.685792C7.40263 0.660075 6.59737 0.660075 5.79273 0.685792C4.93455 0.7127 4.27273 1.42904 4.27273 2.28648V2.95264M9.72727 2.95264C7.9118 2.81234 6.0882 2.81234 4.27273 2.95264" stroke="#FA4040" stroke-linecap="round" stroke-linejoin="round"/>
</svg>
