<svg width="36" height="36" viewBox="0 0 36 36" fill="none" xmlns="http://www.w3.org/2000/svg">
<rect width="36" height="36" rx="18" fill="#FE7900" fill-opacity="0.1"/>
<path d="M20.35 8H15.65C14.61 8 13.76 8.84 13.76 9.88V10.82C13.76 11.86 14.6 12.7 15.64 12.7H20.35C21.39 12.7 22.23 11.86 22.23 10.82V9.88C22.24 8.84 21.39 8 20.35 8Z" fill="#FE7900"/>
<path d="M23.24 10.8205C23.24 12.4105 21.94 13.7105 20.35 13.7105H15.65C14.06 13.7105 12.76 12.4105 12.76 10.8205C12.76 10.2605 12.16 9.91047 11.66 10.1705C10.25 10.9205 9.28999 12.4105 9.28999 14.1205V23.5305C9.28999 25.9905 11.3 28.0005 13.76 28.0005H22.24C24.7 28.0005 26.71 25.9905 26.71 23.5305V14.1205C26.71 12.4105 25.75 10.9205 24.34 10.1705C23.84 9.91047 23.24 10.2605 23.24 10.8205ZM21.34 18.7305L17.34 22.7305C17.19 22.8805 17 22.9505 16.81 22.9505C16.62 22.9505 16.43 22.8805 16.28 22.7305L14.78 21.2305C14.49 20.9405 14.49 20.4605 14.78 20.1705C15.07 19.8805 15.55 19.8805 15.84 20.1705L16.81 21.1405L20.28 17.6705C20.57 17.3805 21.05 17.3805 21.34 17.6705C21.63 17.9605 21.63 18.4405 21.34 18.7305Z" fill="#FE7900"/>
</svg>
