<svg width="20" height="21" viewBox="0 0 20 21" fill="none" xmlns="http://www.w3.org/2000/svg">
<path d="M13.1667 2.34167C12.825 2 12.2333 2.23333 12.2333 2.70833V5.61667C12.2333 6.83333 13.2667 7.84167 14.525 7.84167C15.3167 7.85 16.4167 7.85 17.3583 7.85C17.8333 7.85 18.0833 7.29167 17.75 6.95833C16.55 5.75 14.4 3.575 13.1667 2.34167Z" fill="#FE7900"/>
<path d="M17.0833 8.99167H14.675C12.7 8.99167 11.0916 7.38333 11.0916 5.40833V3C11.0916 2.54167 10.7166 2.16667 10.2583 2.16667H6.72498C4.15831 2.16667 2.08331 3.83333 2.08331 6.80833V14.1917C2.08331 17.1667 4.15831 18.8333 6.72498 18.8333H13.275C15.8416 18.8333 17.9166 17.1667 17.9166 14.1917V9.825C17.9166 9.36667 17.5416 8.99167 17.0833 8.99167ZM9.58331 15.2917H6.24998C5.90831 15.2917 5.62498 15.0083 5.62498 14.6667C5.62498 14.325 5.90831 14.0417 6.24998 14.0417H9.58331C9.92498 14.0417 10.2083 14.325 10.2083 14.6667C10.2083 15.0083 9.92498 15.2917 9.58331 15.2917ZM11.25 11.9583H6.24998C5.90831 11.9583 5.62498 11.675 5.62498 11.3333C5.62498 10.9917 5.90831 10.7083 6.24998 10.7083H11.25C11.5916 10.7083 11.875 10.9917 11.875 11.3333C11.875 11.675 11.5916 11.9583 11.25 11.9583Z" fill="#FE7900"/>
</svg>
