<svg width="24" height="25" viewBox="0 0 24 25" fill="none" xmlns="http://www.w3.org/2000/svg">
<path d="M20.5 10.3121H17.61C15.24 10.3121 13.31 8.38207 13.31 6.01207V3.12207C13.31 2.57207 12.86 2.12207 12.31 2.12207H8.07C4.99 2.12207 2.5 4.12207 2.5 7.69207V16.5521C2.5 20.1221 4.99 22.1221 8.07 22.1221H15.93C19.01 22.1221 21.5 20.1221 21.5 16.5521V11.3121C21.5 10.7621 21.05 10.3121 20.5 10.3121ZM11.53 13.6521C11.38 13.8021 11.19 13.8721 11 13.8721C10.81 13.8721 10.62 13.8021 10.47 13.6521L9.75 12.9321V17.1221C9.75 17.5321 9.41 17.8721 9 17.8721C8.59 17.8721 8.25 17.5321 8.25 17.1221V12.9321L7.53 13.6521C7.24 13.9421 6.76 13.9421 6.47 13.6521C6.18 13.3621 6.18 12.8821 6.47 12.5921L8.47 10.5921C8.54 10.5321 8.61 10.4821 8.69 10.4421C8.71 10.4321 8.74 10.4221 8.76 10.4121C8.82 10.3921 8.88 10.3821 8.95 10.3721C8.98 10.3721 9 10.3721 9.03 10.3721C9.11 10.3721 9.19 10.3921 9.27 10.4221C9.28 10.4221 9.28 10.4221 9.29 10.4221C9.37 10.4521 9.45 10.5121 9.51 10.5721C9.52 10.5821 9.53 10.5821 9.53 10.5921L11.53 12.5921C11.82 12.8821 11.82 13.3621 11.53 13.6521Z" fill="#FE7900"/>
<path d="M17.43 8.93206C18.38 8.94206 19.7 8.94206 20.83 8.94206C21.4 8.94206 21.7 8.27206 21.3 7.87206C19.86 6.42206 17.28 3.81206 15.8 2.33206C15.39 1.92206 14.68 2.20206 14.68 2.77206V6.26206C14.68 7.72206 15.92 8.93206 17.43 8.93206Z" fill="#FE7900"/>
</svg>
