<svg width="31" height="31" viewBox="0 0 31 31" fill="none" xmlns="http://www.w3.org/2000/svg">
<rect width="31" height="31" rx="15.5" fill="#FE7900" fill-opacity="0.1"/>
<path d="M21.3846 11.8492L18.2308 8.61938C17.8462 8.23487 17.3077 8.00416 16.6923 8.00416H12.1538C11 7.92726 10 8.92698 10 10.0805V20.8468C10 22.0003 10.9231 23 12.1538 23H19.8462C21 23 22 22.0772 22 20.8468V13.3104C22 12.7721 21.7692 12.2338 21.3846 11.8492ZM13.6923 14.0794H16C16.3077 14.0794 16.6154 14.3101 16.6154 14.6946C16.6154 15.0791 16.3846 15.3098 16 15.3098H13.6923C13.3846 15.3098 13.0769 15.0791 13.0769 14.6946C13.0769 14.3101 13.3846 14.0794 13.6923 14.0794ZM18.3077 18.3859H13.6923C13.3846 18.3859 13.0769 18.1552 13.0769 17.7707C13.0769 17.3862 13.3077 17.1555 13.6923 17.1555H18.3077C18.6154 17.1555 18.9231 17.3862 18.9231 17.7707C18.9231 18.1552 18.6154 18.3859 18.3077 18.3859Z" fill="#FE7900"/>
</svg>
