<svg width="36" height="37" viewBox="0 0 36 37" fill="none" xmlns="http://www.w3.org/2000/svg">
<rect y="0.5" width="36" height="36" rx="18" fill="#FE7900" fill-opacity="0.1"/>
<path d="M26.5 16.69H23.61C21.24 16.69 19.31 14.76 19.31 12.39V9.5C19.31 8.95 18.86 8.5 18.31 8.5H14.07C10.99 8.5 8.5 10.5 8.5 14.07V22.93C8.5 26.5 10.99 28.5 14.07 28.5H21.93C25.01 28.5 27.5 26.5 27.5 22.93V17.69C27.5 17.14 27.05 16.69 26.5 16.69ZM17.53 20.03C17.38 20.18 17.19 20.25 17 20.25C16.81 20.25 16.62 20.18 16.47 20.03L15.75 19.31V23.5C15.75 23.91 15.41 24.25 15 24.25C14.59 24.25 14.25 23.91 14.25 23.5V19.31L13.53 20.03C13.24 20.32 12.76 20.32 12.47 20.03C12.18 19.74 12.18 19.26 12.47 18.97L14.47 16.97C14.54 16.91 14.61 16.86 14.69 16.82C14.71 16.81 14.74 16.8 14.76 16.79C14.82 16.77 14.88 16.76 14.95 16.75C14.98 16.75 15 16.75 15.03 16.75C15.11 16.75 15.19 16.77 15.27 16.8C15.28 16.8 15.28 16.8 15.29 16.8C15.37 16.83 15.45 16.89 15.51 16.95C15.52 16.96 15.53 16.96 15.53 16.97L17.53 18.97C17.82 19.26 17.82 19.74 17.53 20.03Z" fill="#FE7900"/>
<path d="M23.43 15.31C24.38 15.32 25.7 15.32 26.83 15.32C27.4 15.32 27.7 14.65 27.3 14.25C25.86 12.8 23.28 10.19 21.8 8.70999C21.39 8.29999 20.68 8.57999 20.68 9.14999V12.64C20.68 14.1 21.92 15.31 23.43 15.31Z" fill="#FE7900"/>
</svg>
