<svg width="15" height="17" viewBox="0 0 15 17" fill="none" xmlns="http://www.w3.org/2000/svg">
<path fill-rule="evenodd" clip-rule="evenodd" d="M7.5 0C9.73275 0 11.8796 0.973958 13.3395 2.56771C14.5418 3.98437 15.1429 5.75521 14.9711 7.52604C14.9309 7.6921 14.9095 7.85816 14.8893 8.01509C14.8664 8.19286 14.845 8.35892 14.7994 8.5C14.0265 12.2187 9.99038 15.4948 8.35875 16.7344C8.10113 16.9115 7.8435 17 7.5 17C7.1565 17 6.89887 16.9115 6.64125 16.7344C4.92375 15.4948 0.973491 12.2187 0.200615 8.5C0.11474 8.23437 0.0288651 7.88021 0.0288651 7.52604C-0.142885 5.75521 0.458241 3.98437 1.66049 2.56771C3.12037 0.885417 5.26725 0 7.5 0ZM5.0955 7.70312C5.0955 9.11979 6.21187 10.1823 7.5 10.1823C8.78813 10.1823 9.9045 9.11979 9.9045 7.70312C9.9045 6.28646 8.874 5.22396 7.5 5.22396C6.126 5.22396 5.0955 6.28646 5.0955 7.70312Z" fill="#EC221F"/>
</svg>
