<svg width="20" height="20" viewBox="0 0 20 20" fill="none" xmlns="http://www.w3.org/2000/svg">
<path d="M17.5 18.3335H2.5C2.15833 18.3335 1.875 18.0502 1.875 17.7085C1.875 17.3668 2.15833 17.0835 2.5 17.0835H17.5C17.8417 17.0835 18.125 17.3668 18.125 17.7085C18.125 18.0502 17.8417 18.3335 17.5 18.3335Z" fill="#FE7900"/>
<path d="M15.85 2.90005C14.2333 1.28338 12.65 1.24172 10.9916 2.90005L9.98331 3.90838C9.89998 3.99172 9.86665 4.12505 9.89998 4.24172C10.5333 6.45005 12.3 8.21672 14.5083 8.85005C14.5416 8.85838 14.575 8.86672 14.6083 8.86672C14.7 8.86672 14.7833 8.83338 14.85 8.76672L15.85 7.75838C16.675 6.94172 17.075 6.15005 17.075 5.35005C17.0833 4.52505 16.6833 3.72505 15.85 2.90005Z" fill="#FE7900"/>
<path d="M13.0084 9.60817C12.7668 9.4915 12.5334 9.37484 12.3084 9.2415C12.1251 9.13317 11.9501 9.0165 11.7751 8.8915C11.6334 8.79984 11.4668 8.6665 11.3084 8.53317C11.2918 8.52484 11.2334 8.47484 11.1668 8.40817C10.8918 8.17484 10.5834 7.87484 10.3084 7.5415C10.2834 7.52484 10.2418 7.4665 10.1834 7.3915C10.1001 7.2915 9.95844 7.12484 9.83344 6.93317C9.73344 6.80817 9.61677 6.62484 9.50844 6.4415C9.3751 6.2165 9.25844 5.9915 9.14177 5.75817C8.9888 5.43039 8.55859 5.33301 8.30282 5.58879L3.61677 10.2748C3.50844 10.3832 3.40844 10.5915 3.38344 10.7332L2.93344 13.9248C2.8501 14.4915 3.00844 15.0248 3.35844 15.3832C3.65844 15.6748 4.0751 15.8332 4.5251 15.8332C4.6251 15.8332 4.7251 15.8248 4.8251 15.8082L8.0251 15.3582C8.1751 15.3332 8.38344 15.2332 8.48344 15.1248L13.1772 10.4311C13.4279 10.1804 13.3337 9.74912 13.0084 9.60817Z" fill="#FE7900"/>
</svg>
