<svg width="23" height="20" viewBox="0 0 23 20" fill="none" xmlns="http://www.w3.org/2000/svg">
<path d="M20 5.71429C21.578 5.71429 22.8571 4.4351 22.8571 2.85714C22.8571 1.27919 21.578 0 20 0C18.422 0 17.1429 1.27919 17.1429 2.85714C17.1429 4.4351 18.422 5.71429 20 5.71429Z" fill="#FE7900"/>
<path d="M20 5.71429C21.578 5.71429 22.8571 4.4351 22.8571 2.85714C22.8571 1.27919 21.578 0 20 0C18.422 0 17.1429 1.27919 17.1429 2.85714C17.1429 4.4351 18.422 5.71429 20 5.71429Z" fill="#FE7900"/>
<path d="M21.3943 7.21143C20.5943 7.46286 19.7143 7.50857 18.8 7.28C17.2686 6.88 16.0229 5.65714 15.6 4.12571C15.3943 3.38286 15.3829 2.65143 15.5086 1.98857C15.6571 1.25714 15.1429 0.571429 14.4114 0.571429H5.71429C2.28571 0.571429 0 2.28571 0 6.28571V14.2857C0 18.2857 2.28571 20 5.71429 20H17.1429C20.5714 20 22.8571 18.2857 22.8571 14.2857V8.29714C22.8571 7.54286 22.1257 6.97143 21.3943 7.21143ZM15.4514 9.31429L14.1029 10.3886C13.3486 10.9943 12.3886 11.2914 11.4286 11.2914C10.4686 11.2914 9.49714 10.9943 8.75429 10.3886L5.17714 7.53143C4.81143 7.23429 4.75429 6.68571 5.04 6.32C5.33714 5.95429 5.87429 5.88571 6.24 6.18286L9.81714 9.04C10.6857 9.73714 12.16 9.73714 13.0286 9.04L14.3771 7.96572C14.7429 7.66857 15.2914 7.72571 15.5771 8.10286C15.8743 8.46857 15.8171 9.01714 15.4514 9.31429Z" fill="#FE7900"/>
</svg>
