<svg width="28" height="28" viewBox="0 0 28 28" fill="none" xmlns="http://www.w3.org/2000/svg">
<path d="M16.3335 3.40634V13.1013C16.3335 14.2913 15.3652 15.2597 14.1752 15.2597H3.50016C2.8585 15.2597 2.3335 14.7347 2.3335 14.093V6.63801C2.3335 4.25801 4.2585 2.33301 6.6385 2.33301H15.2485C15.8552 2.33301 16.3335 2.81134 16.3335 3.40634Z" fill="#FE7900"/>
<path d="M25.0835 18.083C25.4102 18.083 25.6668 18.3397 25.6668 18.6663V19.833C25.6668 21.7697 24.1035 23.333 22.1668 23.333C22.1668 21.408 20.5918 19.833 18.6668 19.833C16.7418 19.833 15.1668 21.408 15.1668 23.333H12.8335C12.8335 21.408 11.2585 19.833 9.3335 19.833C7.4085 19.833 5.8335 21.408 5.8335 23.333C3.89683 23.333 2.3335 21.7697 2.3335 19.833V17.4997C2.3335 16.858 2.8585 16.333 3.50016 16.333H14.5835C16.1935 16.333 17.5002 15.0263 17.5002 13.4163V6.99967C17.5002 6.35801 18.0252 5.83301 18.6668 5.83301H19.6468C20.4868 5.83301 21.2568 6.28801 21.6768 7.01134L22.4235 8.31801C22.5285 8.50467 22.3885 8.74967 22.1668 8.74967C20.5568 8.74967 19.2502 10.0563 19.2502 11.6663V15.1663C19.2502 16.7763 20.5568 18.083 22.1668 18.083H25.0835Z" fill="#FE7900"/>
<path d="M9.33333 25.6667C10.622 25.6667 11.6667 24.622 11.6667 23.3333C11.6667 22.0447 10.622 21 9.33333 21C8.04467 21 7 22.0447 7 23.3333C7 24.622 8.04467 25.6667 9.33333 25.6667Z" fill="#FE7900"/>
<path d="M18.6667 25.6667C19.9554 25.6667 21 24.622 21 23.3333C21 22.0447 19.9554 21 18.6667 21C17.378 21 16.3334 22.0447 16.3334 23.3333C16.3334 24.622 17.378 25.6667 18.6667 25.6667Z" fill="#FE7900"/>
<path d="M25.6667 14.6183V16.3333H22.1667C21.525 16.3333 21 15.8083 21 15.1667V11.6667C21 11.025 21.525 10.5 22.1667 10.5H23.6717L25.3633 13.4633C25.5617 13.8133 25.6667 14.21 25.6667 14.6183Z" fill="#FE7900"/>
</svg>
