<svg width="28" height="28" viewBox="0 0 28 28" fill="none" xmlns="http://www.w3.org/2000/svg">
<circle cx="14" cy="14" r="14" fill="#FA4040" fill-opacity="0.2"/>
<circle cx="14" cy="14" r="8" fill="white"/>
<path d="M11.12 18L14 15.12L16.88 18L18 16.88L15.12 14L18 11.12L16.88 10L14 12.88L11.12 10L10 11.12L12.88 14L10 16.88L11.12 18ZM14 22C12.8933 22 11.8533 21.7899 10.88 21.3696C9.90667 20.9499 9.06 20.38 8.34 19.66C7.62 18.94 7.05013 18.0933 6.6304 17.12C6.21013 16.1467 6 15.1067 6 14C6 12.8933 6.21013 11.8533 6.6304 10.88C7.05013 9.90667 7.62 9.06 8.34 8.34C9.06 7.62 9.90667 7.04987 10.88 6.6296C11.8533 6.20987 12.8933 6 14 6C15.1067 6 16.1467 6.20987 17.12 6.6296C18.0933 7.04987 18.94 7.62 19.66 8.34C20.38 9.06 20.9499 9.90667 21.3696 10.88C21.7899 11.8533 22 12.8933 22 14C22 15.1067 21.7899 16.1467 21.3696 17.12C20.9499 18.0933 20.38 18.94 19.66 19.66C18.94 20.38 18.0933 20.9499 17.12 21.3696C16.1467 21.7899 15.1067 22 14 22Z" fill="#F04248"/>
</svg>
