<svg width="22" height="22" viewBox="0 0 22 22" fill="none" xmlns="http://www.w3.org/2000/svg">
<path fill-rule="evenodd" clip-rule="evenodd" d="M18.8247 0.340206C20.4124 0.453608 21.5464 1.70103 21.6598 3.17526C21.8866 5.4433 22 8.61856 22 11C22 13.3814 21.8866 16.5567 21.6598 18.8247C21.5464 20.4124 20.299 21.5464 18.8247 21.6598C18.2491 21.6886 17.6151 21.7247 16.9504 21.7625C14.9961 21.8737 12.7771 22 11 22C8.61856 22 5.4433 21.8866 3.17526 21.6598C1.58763 21.5464 0.453608 20.299 0.340206 18.8247C0.311426 18.2491 0.275343 17.6151 0.237516 16.9505C0.126293 14.9962 0 12.7771 0 11C0 8.61856 0.113402 5.4433 0.340206 3.17526C0.453608 2.38144 0.793815 1.81443 1.24742 1.24742C1.70103 0.680413 2.38144 0.340206 3.17526 0.340206C5.4433 0.113402 8.61856 0 11 0C13.3814 0 16.5567 0.113402 18.8247 0.340206ZM9.53493 15.1731C9.44591 15.2155 9.36006 15.2564 9.2785 15.2958C8.9705 15.4595 8.5855 15.4186 8.316 15.2549C8.008 15.0503 7.8155 14.723 7.8155 14.3548C7.80662 14.1377 7.79568 13.8966 7.78412 13.6415C7.74556 12.7914 7.7 11.7868 7.7 11C7.7 10.2435 7.74212 9.30801 7.77963 8.47485C7.79284 8.18151 7.80548 7.90085 7.8155 7.64517C7.854 7.27696 8.008 6.94965 8.316 6.74509C8.5855 6.58144 8.9705 6.54053 9.2785 6.70418C10.1255 7.11331 11.3575 7.72699 12.243 8.25886C13.09 8.79072 14.168 9.52715 14.938 10.0999C15.246 10.3045 15.4 10.6318 15.4 11C15.4 11.3682 15.2075 11.6955 14.938 11.9001C14.168 12.4729 13.09 13.2502 12.243 13.7411C12.0209 13.8592 11.7899 13.9866 11.55 14.119C11.2909 14.262 11.0214 14.4107 10.7415 14.5594C10.3374 14.7906 9.90818 14.9952 9.53493 15.1731Z" fill="white"/>
</svg>
