<svg width="36" height="36" viewBox="0 0 36 36" fill="none" xmlns="http://www.w3.org/2000/svg">
<rect width="36" height="36" rx="18" fill="#FE7900" fill-opacity="0.1"/>
<path d="M18 8C12.4898 8 8 12.4898 8 18C8 23.5102 12.4898 28 18 28C23.5102 28 28 23.5102 28 18C28 12.4898 23.5102 8 18 8ZM18.8163 21.5714C18.8163 21.9796 18.5102 22.3878 18 22.3878C17.4898 22.3878 17.1837 22.0816 17.1837 21.5714V17.4898C17.1837 17.0816 17.4898 16.6735 18 16.6735C18.5102 16.6735 18.8163 16.9796 18.8163 17.4898V21.5714ZM18 15.449C17.4898 15.449 16.9796 14.9388 16.9796 14.4286C16.9796 13.9184 17.4898 13.4082 18 13.4082C18.5102 13.4082 19.0204 13.9184 19.0204 14.4286C19.0204 14.9388 18.5102 15.449 18 15.449Z" fill="#FE7900"/>
</svg>
