<svg width="21" height="20" viewBox="0 0 21 20" fill="none" xmlns="http://www.w3.org/2000/svg">
<path d="M15.6796 0H5.22653C2.09061 0 0 2.09061 0 5.22652V11.4984C0 14.6343 2.09061 16.7249 5.22653 16.7249V18.9514C5.22653 19.7876 6.15685 20.2894 6.84675 19.819L11.4984 16.7249H15.6796C18.8155 16.7249 20.9061 14.6343 20.9061 11.4984V5.22652C20.9061 2.09061 18.8155 0 15.6796 0ZM10.4531 12.7214C10.014 12.7214 9.66907 12.366 9.66907 11.9374C9.66907 11.5088 10.014 11.1534 10.4531 11.1534C10.8921 11.1534 11.237 11.5088 11.237 11.9374C11.237 12.366 10.8921 12.7214 10.4531 12.7214ZM11.7701 8.38334C11.3625 8.65512 11.237 8.83283 11.237 9.12551V9.34503C11.237 9.7736 10.8816 10.129 10.4531 10.129C10.0245 10.129 9.66907 9.7736 9.66907 9.34503V9.12551C9.66907 7.91296 10.5576 7.31713 10.8921 7.08717C11.2788 6.82584 11.4043 6.64814 11.4043 6.37636C11.4043 5.85371 10.9757 5.42513 10.4531 5.42513C9.9304 5.42513 9.50182 5.85371 9.50182 6.37636C9.50182 6.80493 9.14642 7.16034 8.71784 7.16034C8.28927 7.16034 7.93386 6.80493 7.93386 6.37636C7.93386 4.9861 9.06279 3.85717 10.4531 3.85717C11.8433 3.85717 12.9722 4.9861 12.9722 6.37636C12.9722 7.56801 12.0942 8.16383 11.7701 8.38334Z" fill="#FE7900"/>
</svg>
