<svg width="28" height="28" viewBox="0 0 28 28" fill="none" xmlns="http://www.w3.org/2000/svg">
<path d="M11.9311 7.90222H12.8333V11.6667L11.3867 10.5778C11.2711 10.4941 11.1769 10.3842 11.112 10.2571C11.0471 10.13 11.0133 9.98937 11.0133 9.84667V8.82C11.0133 8.57659 11.11 8.34315 11.2821 8.17103C11.4543 7.99892 11.6877 7.90222 11.9311 7.90222Z" fill="#4A4A4B"/>
<path d="M15.1667 16.3333L16.6133 17.4222C16.729 17.5059 16.8231 17.6158 16.888 17.7429C16.9529 17.87 16.9867 18.0106 16.9867 18.1533V19.18C16.9867 19.4234 16.89 19.6568 16.7179 19.829C16.5457 20.0011 16.3123 20.0978 16.0689 20.0978H15.1667V16.3333Z" fill="#4A4A4B"/>
<path d="M14 0C11.2311 0 8.52431 0.821086 6.22202 2.35943C3.91973 3.89777 2.12532 6.08427 1.06569 8.64243C0.00606591 11.2006 -0.271181 14.0155 0.269012 16.7313C0.809205 19.447 2.14258 21.9416 4.10051 23.8995C6.05845 25.8574 8.55301 27.1908 11.2687 27.731C13.9845 28.2712 16.7994 27.9939 19.3576 26.9343C21.9157 25.8747 24.1022 24.0803 25.6406 21.778C27.1789 19.4757 28 16.7689 28 14C28 10.287 26.525 6.72601 23.8995 4.1005C21.274 1.475 17.713 0 14 0ZM19.32 10.8889C19.32 11.1983 19.1971 11.4951 18.9783 11.7138C18.7595 11.9326 18.4628 12.0556 18.1533 12.0556C17.8439 12.0556 17.5472 11.9326 17.3284 11.7138C17.1096 11.4951 16.9867 11.1983 16.9867 10.8889V8.82C16.9867 8.57659 16.89 8.34315 16.7179 8.17103C16.5457 7.99892 16.3123 7.90222 16.0689 7.90222H15.1667V13.4244L18.0133 15.5556C18.4169 15.8583 18.745 16.2503 18.9717 16.701C19.1984 17.1517 19.3176 17.6488 19.32 18.1533V19.18C19.3159 20.041 18.9721 20.8655 18.3633 21.4744C17.7544 22.0832 16.9299 22.427 16.0689 22.4311H15.1667V23.3333C15.1667 23.6428 15.0438 23.9395 14.825 24.1583C14.6062 24.3771 14.3094 24.5 14 24.5C13.6906 24.5 13.3938 24.3771 13.175 24.1583C12.9563 23.9395 12.8333 23.6428 12.8333 23.3333V22.4311H11.9311C11.0701 22.427 10.2456 22.0832 9.63675 21.4744C9.02794 20.8655 8.6841 20.041 8.68001 19.18V17.1111C8.68001 16.8017 8.80292 16.5049 9.02171 16.2862C9.24051 16.0674 9.53725 15.9444 9.84667 15.9444C10.1561 15.9444 10.4528 16.0674 10.6716 16.2862C10.8904 16.5049 11.0133 16.8017 11.0133 17.1111V19.18C11.0133 19.4234 11.11 19.6568 11.2821 19.829C11.4543 20.0011 11.6877 20.0978 11.9311 20.0978H12.8333V14.5756L9.98667 12.4444C9.58306 12.1417 9.25504 11.7497 9.02834 11.299C8.80164 10.8483 8.68241 10.3512 8.68001 9.84667V8.82C8.6841 7.95901 9.02794 7.13445 9.63675 6.52564C10.2456 5.91682 11.0701 5.57298 11.9311 5.56889H12.8333V4.66667C12.8333 4.35725 12.9563 4.0605 13.175 3.84171C13.3938 3.62292 13.6906 3.5 14 3.5C14.3094 3.5 14.6062 3.62292 14.825 3.84171C15.0438 4.0605 15.1667 4.35725 15.1667 4.66667V5.56889H16.0689C16.9299 5.57298 17.7544 5.91682 18.3633 6.52564C18.9721 7.13445 19.3159 7.95901 19.32 8.82V10.8889Z" fill="#4A4A4B"/>
</svg>
