<svg width="28" height="29" viewBox="0 0 28 29" fill="none" xmlns="http://www.w3.org/2000/svg">
<path d="M25.6666 26.1763H2.33325C1.85492 26.1763 1.45825 25.7796 1.45825 25.3013C1.45825 24.8229 1.85492 24.4263 2.33325 24.4263H25.6666C26.1449 24.4263 26.5416 24.8229 26.5416 25.3013C26.5416 25.7796 26.1449 26.1763 25.6666 26.1763Z" fill="#4A4A4B"/>
<path d="M11.375 5.1766V26.1766H16.625V5.1766C16.625 3.89326 16.1 2.84326 14.525 2.84326H13.475C11.9 2.84326 11.375 3.89326 11.375 5.1766Z" fill="#4A4A4B"/>
<path d="M3.5 12.1766V26.1766H8.16667V12.1766C8.16667 10.8933 7.7 9.84326 6.3 9.84326H5.36667C3.96667 9.84326 3.5 10.8933 3.5 12.1766Z" fill="#4A4A4B"/>
<path d="M19.8333 18.0096V26.1763H24.4999V18.0096C24.4999 16.7263 24.0333 15.6763 22.6333 15.6763H21.6999C20.2999 15.6763 19.8333 16.7263 19.8333 18.0096Z" fill="#4A4A4B"/>
</svg>
