<svg width="20" height="21" viewBox="0 0 20 21" fill="none" xmlns="http://www.w3.org/2000/svg">
<path d="M7.69231 1.3913V3.9554C7.69231 4.15942 7.61126 4.35507 7.46701 4.49933C7.32275 4.64359 7.12709 4.72463 6.92308 4.72463C6.71906 4.72463 6.52341 4.64359 6.37915 4.49933C6.23489 4.35507 6.15385 4.15942 6.15385 3.9554V1.3913C6.15385 1.18729 6.23489 0.991632 6.37915 0.847373C6.52341 0.703114 6.71906 0.62207 6.92308 0.62207C7.12709 0.62207 7.32275 0.703114 7.46701 0.847373C7.61126 0.991632 7.69231 1.18729 7.69231 1.3913Z" fill="#D9D9D9"/>
<path d="M19.6513 4.51951C19.6034 3.85901 19.3187 3.238 18.8495 2.77068C18.3803 2.30335 17.7581 2.02113 17.0974 1.97592C16.4308 1.92463 15.6718 1.87335 14.8718 1.83233V3.9554C14.8718 4.43143 14.6827 4.88797 14.3461 5.22457C14.0095 5.56117 13.553 5.75028 13.0769 5.75028C12.6009 5.75028 12.1444 5.56117 11.8078 5.22457C11.4712 4.88797 11.2821 4.43143 11.2821 3.9554V1.64771H8.71795V3.9554C8.71795 4.43143 8.52885 4.88797 8.19224 5.22457C7.85564 5.56117 7.39911 5.75028 6.92308 5.75028C6.44705 5.75028 5.99051 5.56117 5.65391 5.22457C5.31731 4.88797 5.12821 4.43143 5.12821 3.9554V1.83233C4.32821 1.83233 3.56923 1.92463 2.89231 1.97592C2.23236 2.02322 1.61139 2.30611 1.1426 2.77302C0.673809 3.23993 0.388421 3.85976 0.338462 4.51951C0.184615 6.41694 0 9.10412 0 11.1349C0 13.1657 0.184615 15.8631 0.338462 17.7605C0.388695 18.4192 0.674454 19.0378 1.14344 19.503C1.61242 19.9682 2.23325 20.2489 2.89231 20.2939C4.94359 20.4477 7.8359 20.6221 10 20.6221C12.1641 20.6221 15.0462 20.4477 17.0974 20.2939C17.7572 20.251 18.3792 19.971 18.8487 19.5053C19.3181 19.0397 19.6031 18.42 19.6513 17.7605C19.8154 15.8631 20 13.1759 20 11.1349C20 9.09387 19.8154 6.41694 19.6513 4.51951ZM5.89744 14.7759C5.62542 14.7759 5.36454 14.6679 5.1722 14.4755C4.97985 14.2832 4.8718 14.0223 4.8718 13.7503C4.8718 13.4783 4.97985 13.2174 5.1722 13.025C5.36454 12.8327 5.62542 12.7246 5.89744 12.7246C6.16945 12.7246 6.43033 12.8327 6.62267 13.025C6.81502 13.2174 6.92308 13.4783 6.92308 13.7503C6.92308 14.0223 6.81502 14.2832 6.62267 14.4755C6.43033 14.6679 6.16945 14.7759 5.89744 14.7759ZM5.89744 10.6734C5.62542 10.6734 5.36454 10.5653 5.1722 10.3729C4.97985 10.1806 4.8718 9.91973 4.8718 9.64771C4.8718 9.3757 4.97985 9.11482 5.1722 8.92247C5.36454 8.73013 5.62542 8.62207 5.89744 8.62207C6.16945 8.62207 6.43033 8.73013 6.62267 8.92247C6.81502 9.11482 6.92308 9.3757 6.92308 9.64771C6.92308 9.91973 6.81502 10.1806 6.62267 10.3729C6.43033 10.5653 6.16945 10.6734 5.89744 10.6734ZM10 14.7759C9.72798 14.7759 9.46711 14.6679 9.27476 14.4755C9.08242 14.2832 8.97436 14.0223 8.97436 13.7503C8.97436 13.4783 9.08242 13.2174 9.27476 13.025C9.46711 12.8327 9.72798 12.7246 10 12.7246C10.272 12.7246 10.5329 12.8327 10.7252 13.025C10.9176 13.2174 11.0256 13.4783 11.0256 13.7503C11.0256 14.0223 10.9176 14.2832 10.7252 14.4755C10.5329 14.6679 10.272 14.7759 10 14.7759ZM10 10.6734C9.72798 10.6734 9.46711 10.5653 9.27476 10.3729C9.08242 10.1806 8.97436 9.91973 8.97436 9.64771C8.97436 9.3757 9.08242 9.11482 9.27476 8.92247C9.46711 8.73013 9.72798 8.62207 10 8.62207C10.272 8.62207 10.5329 8.73013 10.7252 8.92247C10.9176 9.11482 11.0256 9.3757 11.0256 9.64771C11.0256 9.91973 10.9176 10.1806 10.7252 10.3729C10.5329 10.5653 10.272 10.6734 10 10.6734ZM14.1026 10.6734C13.8305 10.6734 13.5697 10.5653 13.3773 10.3729C13.185 10.1806 13.0769 9.91973 13.0769 9.64771C13.0769 9.3757 13.185 9.11482 13.3773 8.92247C13.5697 8.73013 13.8305 8.62207 14.1026 8.62207C14.3746 8.62207 14.6355 8.73013 14.8278 8.92247C15.0201 9.11482 15.1282 9.3757 15.1282 9.64771C15.1282 9.91973 15.0201 10.1806 14.8278 10.3729C14.6355 10.5653 14.3746 10.6734 14.1026 10.6734Z" fill="#D9D9D9"/>
<path d="M13.8462 1.3913V3.9554C13.8462 4.15942 13.7651 4.35507 13.6209 4.49933C13.4766 4.64359 13.2809 4.72463 13.0769 4.72463C12.8729 4.72463 12.6773 4.64359 12.533 4.49933C12.3887 4.35507 12.3077 4.15942 12.3077 3.9554V1.3913C12.3077 1.18729 12.3887 0.991632 12.533 0.847373C12.6773 0.703114 12.8729 0.62207 13.0769 0.62207C13.2809 0.62207 13.4766 0.703114 13.6209 0.847373C13.7651 0.991632 13.8462 1.18729 13.8462 1.3913Z" fill="#D9D9D9"/>
</svg>
