<svg width="10" height="11" viewBox="0 0 10 11" fill="none" xmlns="http://www.w3.org/2000/svg">
<path d="M7.095 0.62207H2.905C1.085 0.62207 0 1.70707 0 3.52707V7.71207C0 9.53707 1.085 10.6221 2.905 10.6221H7.09C8.91 10.6221 9.995 9.53707 9.995 7.71707V3.52707C10 1.70707 8.915 0.62207 7.095 0.62207ZM7.41 6.74207L5.265 8.88707C5.195 8.95707 5.1 8.99707 5 8.99707C4.9 8.99707 4.805 8.95707 4.735 8.88707L2.59 6.74207C2.445 6.59707 2.445 6.35707 2.59 6.21207C2.735 6.06707 2.975 6.06707 3.12 6.21207L4.625 7.71707V2.62207C4.625 2.41707 4.795 2.24707 5 2.24707C5.205 2.24707 5.375 2.41707 5.375 2.62207V7.71707L6.88 6.21207C7.025 6.06707 7.265 6.06707 7.41 6.21207C7.485 6.28707 7.52 6.38207 7.52 6.47707C7.52 6.57207 7.48 6.67207 7.41 6.74207Z" fill="#6D6D6D"/>
</svg>
