<svg width="70" height="70" viewBox="0 0 70 70" fill="none" xmlns="http://www.w3.org/2000/svg">
<g filter="url(#filter0_d_296_802)">
<path d="M35 16C26.7347 16 20 22.7347 20 31C20 39.2653 26.7347 46 35 46C43.2653 46 50 39.2653 50 31C50 22.7347 43.2653 16 35 16ZM40.3571 28.7041L34.2347 34.8265C33.9286 34.9796 33.7755 35.1327 33.4694 35.1327C33.1633 35.1327 32.8571 34.9796 32.7041 34.8265L29.6429 31.7653C29.1837 31.3061 29.1837 30.5408 29.6429 30.0816C30.102 29.6225 30.8673 29.6225 31.3265 30.0816L33.6225 32.3776L38.9796 27.0204C39.4388 26.5612 40.2041 26.5612 40.6633 27.0204C40.8163 27.6327 40.8163 28.2449 40.3571 28.7041Z" fill="white"/>
</g>
<defs>
<filter id="filter0_d_296_802" x="0" y="0" width="70" height="70" filterUnits="userSpaceOnUse" color-interpolation-filters="sRGB">
<feFlood flood-opacity="0" result="BackgroundImageFix"/>
<feColorMatrix in="SourceAlpha" type="matrix" values="0 0 0 0 0 0 0 0 0 0 0 0 0 0 0 0 0 0 127 0" result="hardAlpha"/>
<feOffset dy="4"/>
<feGaussianBlur stdDeviation="10"/>
<feComposite in2="hardAlpha" operator="out"/>
<feColorMatrix type="matrix" values="0 0 0 0 0.0784314 0 0 0 0 0.682353 0 0 0 0 0.360784 0 0 0 1 0"/>
<feBlend mode="normal" in2="BackgroundImageFix" result="effect1_dropShadow_296_802"/>
<feBlend mode="normal" in="SourceGraphic" in2="effect1_dropShadow_296_802" result="shape"/>
</filter>
</defs>
</svg>
