<svg xmlns="http://www.w3.org/2000/svg" width="24" height="24.005" viewBox="0 0 24 24.005">
    <path data-name="Path 120" d="M23 22H5a3 3 0 0 1-3-3V1a1 1 0 1 0-2 0v18a5.006 5.006 0 0 0 5 5h18a1 1 0 0 0 0-2z" style="fill:currentColor"/>
    <path data-name="Path 121" d="M6 20a1 1 0 0 0 1-1v-7a1 1 0 1 0-2 0v7a1 1 0 0 0 1 1z" transform="translate(0 .002)" style="fill:currentColor"/>
    <path data-name="Path 122" d="M10 10v9a1 1 0 1 0 2 0v-9a1 1 0 1 0-2 0z" transform="translate(0 .002)" style="fill:currentColor"/>
    <path data-name="Path 123" d="M15 13v6a1 1 0 1 0 2 0v-6a1 1 0 1 0-2 0z" transform="translate(0 .002)" style="fill:currentColor"/>
    <path data-name="Path 124" d="M20 9v10a1 1 0 1 0 2 0V9a1 1 0 1 0-2 0z" transform="translate(0 .002)" style="fill:currentColor"/>
    <path data-name="Path 125" d="M6 9a1 1 0 0 0 .707-.293l3.586-3.587a1.025 1.025 0 0 1 1.414 0l2.172 2.172a3 3 0 0 0 4.242 0l5.586-5.587A1 1 0 1 0 22.293.293l-5.586 5.586a1 1 0 0 1-1.414 0l-2.172-2.171a3 3 0 0 0-4.242 0L5.293 7.294A1 1 0 0 0 6 9z" style="fill:currentColor"/>
</svg>
