<svg width="56" height="56" viewBox="0 0 56 56" fill="none" xmlns="http://www.w3.org/2000/svg">
<g filter="url(#filter0_d_679_968)">
<path d="M33 41.9167C32.55 41.9167 32.1333 41.6667 31.9167 41.2833C31.7 40.8833 31.7 40.4167 31.9333 40.0167L33.6833 37.1C34.0333 36.5167 34.8 36.3167 35.4 36.6667C36 37.0167 36.1833 37.7833 35.8333 38.3833L35.3833 39.1333C39.9833 38.05 43.4333 33.9167 43.4333 28.9833C43.4333 28.3 44 27.7333 44.6833 27.7333C45.3667 27.7333 45.9333 28.3 45.9333 28.9833C45.9167 36.1167 40.1167 41.9167 33 41.9167Z" fill="white"/>
<path d="M11.3333 20.25C10.65 20.25 10.0833 19.6833 10.0833 19C10.0833 11.8833 15.8833 6.08333 23 6.08333C23.45 6.08333 23.8667 6.33333 24.0833 6.71667C24.3 7.11667 24.3 7.58333 24.0667 7.98333L22.3167 10.9C21.9667 11.4833 21.2 11.6833 20.6 11.3167C20.0167 10.9667 19.8167 10.2 20.1833 9.6L20.6333 8.85C16.0167 9.93333 12.5833 14.0667 12.5833 19C12.5833 19.6833 12.0167 20.25 11.3333 20.25Z" fill="white"/>
<path d="M35.3333 17.6833L29.0667 14.3C28.4 13.95 27.6167 13.95 26.95 14.3L20.6667 17.6833C20.2167 17.9333 19.9333 18.4167 19.9333 18.95C19.9333 19.5 20.2167 19.9833 20.6667 20.2333L26.9333 23.6167C27.2667 23.8 27.6333 23.8833 28 23.8833C28.3667 23.8833 28.7333 23.8 29.0667 23.6167L35.3333 20.2333C35.7833 19.9833 36.0667 19.5 36.0667 18.95C36.0667 18.4167 35.7833 17.9333 35.3333 17.6833Z" fill="white"/>
<path d="M25.9 24.7833L20.0667 21.8667C19.6167 21.65 19.1 21.6667 18.6667 21.9333C18.25 22.2 18 22.65 18 23.15V28.6667C18 29.6167 18.5333 30.4833 19.3833 30.9L25.2167 33.8167C25.4167 33.9167 25.6333 33.9667 25.8667 33.9667C26.1333 33.9667 26.3833 33.9 26.6167 33.75C27.05 33.4833 27.3 33.0333 27.3 32.5333V27.0167C27.2833 26.0667 26.7667 25.2167 25.9 24.7833Z" fill="white"/>
<path d="M37.3167 21.9333C36.8833 21.6667 36.3667 21.65 35.9167 21.8667L30.0833 24.7833C29.2333 25.2167 28.7 26.0667 28.7 27.0167V32.5333C28.7 33.0333 28.95 33.4833 29.3833 33.75C29.6167 33.9 29.8667 33.9667 30.1333 33.9667C30.35 33.9667 30.5667 33.9167 30.7833 33.8167L36.6167 30.9C37.4667 30.4667 38 29.6167 38 28.6667V23.15C38 22.65 37.75 22.2 37.3167 21.9333Z" fill="white"/>
</g>
<defs>
<filter id="filter0_d_679_968" x="0.083252" y="0.083252" width="55.8501" height="55.8335" filterUnits="userSpaceOnUse" color-interpolation-filters="sRGB">
<feFlood flood-opacity="0" result="BackgroundImageFix"/>
<feColorMatrix in="SourceAlpha" type="matrix" values="0 0 0 0 0 0 0 0 0 0 0 0 0 0 0 0 0 0 127 0" result="hardAlpha"/>
<feOffset dy="4"/>
<feGaussianBlur stdDeviation="5"/>
<feComposite in2="hardAlpha" operator="out"/>
<feColorMatrix type="matrix" values="0 0 0 0 0.996078 0 0 0 0 0.47451 0 0 0 0 0 0 0 0 0.5 0"/>
<feBlend mode="multiply" in2="BackgroundImageFix" result="effect1_dropShadow_679_968"/>
<feBlend mode="normal" in="SourceGraphic" in2="effect1_dropShadow_679_968" result="shape"/>
</filter>
</defs>
</svg>
