<svg width="22" height="29" viewBox="0 0 22 29" fill="none" xmlns="http://www.w3.org/2000/svg">
<path d="M17.4357 2.32578C17.3116 2.32152 17.1907 2.36578 17.0987 2.44917C17.0066 2.53256 16.9507 2.64852 16.9428 2.77245C16.8331 3.7077 16.3832 4.56992 15.6788 5.19482C14.9743 5.81972 14.0646 6.16362 13.123 6.16099H8.50223C7.55528 6.17124 6.63803 5.83077 5.9271 5.20515C5.21617 4.57953 4.76185 3.71301 4.65161 2.77245C4.64367 2.64852 4.58776 2.53256 4.49574 2.44917C4.40373 2.36578 4.28284 2.32152 4.15873 2.32578C3.01499 2.44071 1.95515 2.97783 1.18617 3.83225C0.417196 4.68667 -0.00570242 5.79703 5.80842e-05 6.94652V23.8893C5.80842e-05 25.1148 0.486885 26.2901 1.35344 27.1566C2.22 28.0232 3.39531 28.51 4.6208 28.51H16.9428C18.1683 28.51 19.3436 28.0232 20.2102 27.1566C21.0767 26.2901 21.5635 25.1148 21.5635 23.8893V6.94652C21.5701 5.80182 21.1515 4.69545 20.3888 3.84176C19.6262 2.98808 18.5739 2.44786 17.4357 2.32578ZM11.7368 21.5635H6.19186C5.88548 21.5635 5.59166 21.4418 5.37502 21.2251C5.15838 21.0085 5.03667 20.7147 5.03667 20.4083C5.03667 20.1019 5.15838 19.8081 5.37502 19.5915C5.59166 19.3748 5.88548 19.2531 6.19186 19.2531H11.7368C12.0431 19.2531 12.337 19.3748 12.5536 19.5915C12.7702 19.8081 12.8919 20.1019 12.8919 20.4083C12.8919 20.7147 12.7702 21.0085 12.5536 21.2251C12.337 21.4418 12.0431 21.5635 11.7368 21.5635ZM15.4333 16.9427H6.19186C5.88548 16.9427 5.59166 16.821 5.37502 16.6044C5.15838 16.3878 5.03667 16.0939 5.03667 15.7875C5.03667 15.4812 5.15838 15.1874 5.37502 14.9707C5.59166 14.7541 5.88548 14.6324 6.19186 14.6324H15.4333C15.7397 14.6324 16.0335 14.7541 16.2502 14.9707C16.4668 15.1874 16.5885 15.4812 16.5885 15.7875C16.5885 16.0939 16.4668 16.3878 16.2502 16.6044C16.0335 16.821 15.7397 16.9427 15.4333 16.9427ZM15.4333 12.322H6.19186C5.88548 12.322 5.59166 12.2003 5.37502 11.9836C5.15838 11.767 5.03667 11.4732 5.03667 11.1668C5.03667 10.8604 5.15838 10.5666 5.37502 10.35C5.59166 10.1333 5.88548 10.0116 6.19186 10.0116H15.4333C15.7397 10.0116 16.0335 10.1333 16.2502 10.35C16.4668 10.5666 16.5885 10.8604 16.5885 11.1668C16.5885 11.4732 16.4668 11.767 16.2502 11.9836C16.0335 12.2003 15.7397 12.322 15.4333 12.322Z" fill="#4A4A4B"/>
<path d="M8.50223 4.62075H13.123C13.7357 4.62075 14.3234 4.37733 14.7567 3.94405C15.1899 3.51077 15.4333 2.92312 15.4333 2.31037C15.4333 1.69762 15.1899 1.10997 14.7567 0.676693C14.3234 0.243414 13.7357 9.13067e-09 13.123 0H8.50223C7.88948 9.13067e-09 7.30183 0.243414 6.86855 0.676693C6.43527 1.10997 6.19186 1.69762 6.19186 2.31037C6.19186 2.92312 6.43527 3.51077 6.86855 3.94405C7.30183 4.37733 7.88948 4.62075 8.50223 4.62075Z" fill="#4A4A4B"/>
</svg>
