<svg width="36" height="36" viewBox="0 0 36 36" fill="none" xmlns="http://www.w3.org/2000/svg">
<rect width="36" height="36" rx="18" fill="#FE7900" fill-opacity="0.1"/>
<path d="M18 8C12.48 8 8 12.48 8 18C8 23.52 12.48 28 18 28C23.52 28 28 23.52 28 18C28 12.48 23.52 8 18 8ZM23 23.47C21.29 23.47 19.69 22.73 18.41 21.36C16.96 22.67 15.07 23.47 13 23.47C12.59 23.47 12.25 23.13 12.25 22.72C12.25 22.31 12.59 21.97 13 21.97C16.47 21.97 19.34 19.22 19.71 15.7H18H13.01C12.6 15.7 12.26 15.36 12.26 14.95C12.26 14.54 12.6 14.21 13.01 14.21H17.25V13.28C17.25 12.87 17.59 12.53 18 12.53C18.41 12.53 18.75 12.87 18.75 13.28V14.21H20.44C20.46 14.21 20.48 14.2 20.5 14.2C20.52 14.2 20.54 14.21 20.56 14.21H22.99C23.4 14.21 23.74 14.55 23.74 14.96C23.74 15.37 23.4 15.71 22.99 15.71H21.21C21.06 17.42 20.42 18.99 19.44 20.27C20.44 21.38 21.69 21.98 23 21.98C23.41 21.98 23.75 22.32 23.75 22.73C23.75 23.14 23.41 23.47 23 23.47Z" fill="#FE7900"/>
</svg>
