<svg width="24" height="25" viewBox="0 0 24 25" fill="none" xmlns="http://www.w3.org/2000/svg">
<path d="M5.12817 8.77592C5.12817 11.0323 5.12817 14.2118 5.12817 15.7503C5.23074 17.0836 5.3333 18.8272 5.43587 20.058C5.53843 21.4939 6.7692 22.6221 8.2051 22.6221H15.7948C17.2307 22.6221 18.4615 21.4939 18.5641 20.058C18.6666 18.8272 18.7692 17.0836 18.8718 15.7503C18.9743 14.2118 18.8718 11.0323 18.8718 8.77592H5.12817Z" fill="#EC221F" fill-opacity="0.5"/>
<path d="M19.1795 5.69899H16.6154L15.7949 4.16053C15.2821 3.23745 14.359 2.62207 13.3333 2.62207H10.8718C9.84615 2.62207 8.82051 3.23745 8.41026 4.16053L7.38462 5.69899H4.82051C4.41026 5.69899 4 6.10925 4 6.51951C4 6.92976 4.41026 7.34002 4.82051 7.34002H19.1795C19.5897 7.34002 20 7.03233 20 6.51951C20 6.00669 19.5897 5.69899 19.1795 5.69899ZM9.12821 5.69899L9.64103 4.87848C9.84615 4.46822 10.2564 4.16053 10.7692 4.16053H13.2308C13.7436 4.16053 14.1538 4.36566 14.359 4.87848L14.8718 5.69899H9.12821Z" fill="#EC221F" fill-opacity="0.5"/>
</svg>
