<svg width="20" height="20" viewBox="0 0 20 20" fill="none" xmlns="http://www.w3.org/2000/svg">
<path d="M15.0075 0H5.0025C2.24112 0 0 2.23112 0 4.98249V11.966C0 14.7174 2.24112 16.9485 5.0025 16.9485H6.50325C6.77339 16.9485 7.13357 17.1286 7.30365 17.3487L8.8044 19.3397C9.46473 20.2201 10.5453 20.2201 11.2056 19.3397L12.7064 17.3487C12.8964 17.0985 13.1966 16.9485 13.5068 16.9485H15.0075C17.7689 16.9485 20.01 14.7174 20.01 11.966V4.98249C20.01 2.23112 17.7689 0 15.0075 0ZM6.003 10.005C5.44272 10.005 5.0025 9.55478 5.0025 9.0045C5.0025 8.45423 5.45273 8.004 6.003 8.004C6.55328 8.004 7.0035 8.45423 7.0035 9.0045C7.0035 9.55478 6.56328 10.005 6.003 10.005ZM10.005 10.005C9.44472 10.005 9.0045 9.55478 9.0045 9.0045C9.0045 8.45423 9.45473 8.004 10.005 8.004C10.5553 8.004 11.0055 8.45423 11.0055 9.0045C11.0055 9.55478 10.5653 10.005 10.005 10.005ZM14.007 10.005C13.4467 10.005 13.0065 9.55478 13.0065 9.0045C13.0065 8.45423 13.4567 8.004 14.007 8.004C14.5573 8.004 15.0075 8.45423 15.0075 9.0045C15.0075 9.55478 14.5673 10.005 14.007 10.005Z" fill="#FE7900"/>
</svg>
