<svg width="22" height="22" viewBox="0 0 22 22" fill="none" xmlns="http://www.w3.org/2000/svg">
<path d="M18.4104 12.8633L17.388 11.1623C17.1618 10.7914 16.9628 10.0766 16.9628 9.64231V7.9504C16.9628 4.66612 14.2937 1.99707 11.0185 1.99707C7.73423 2.00612 5.06518 4.66612 5.06518 7.9504V9.63326C5.06518 10.0675 4.86613 10.7823 4.64899 11.1533L3.62661 12.8542C3.23756 13.5147 3.14708 14.2656 3.39137 14.9171C3.63565 15.5775 4.18756 16.1023 4.91137 16.3375C5.88851 16.6633 6.8747 16.8985 7.87899 17.0704C7.97851 17.0885 8.07803 17.0975 8.17756 17.1156C8.30423 17.1337 8.43994 17.1518 8.57565 17.1699C8.81089 17.2061 9.04613 17.2333 9.29042 17.2514C9.86042 17.3056 10.4395 17.3328 11.0185 17.3328C11.5885 17.3328 12.1585 17.3056 12.7195 17.2514C12.9276 17.2333 13.1357 17.2152 13.3347 17.188C13.4976 17.1699 13.6604 17.1518 13.8233 17.1247C13.9228 17.1156 14.0223 17.0975 14.1218 17.0795C15.1352 16.9166 16.1395 16.6633 17.1166 16.3375C17.8133 16.1023 18.3471 15.5775 18.6004 14.908C18.8537 14.2295 18.7814 13.4875 18.4104 12.8633ZM11.679 9.18993C11.679 9.56993 11.3714 9.87755 10.9914 9.87755C10.6114 9.87755 10.3037 9.56993 10.3037 9.18993V6.38517C10.3037 6.00517 10.6114 5.69755 10.9914 5.69755C11.3714 5.69755 11.679 6.00517 11.679 6.38517V9.18993Z" fill="#FE7900"/>
<path d="M13.5606 18.2468C13.1806 19.2964 12.1763 20.0473 11.0002 20.0473C10.2854 20.0473 9.57968 19.7578 9.08206 19.2421C8.79254 18.9707 8.5754 18.6087 8.44873 18.2378C8.56635 18.2559 8.68397 18.2649 8.81063 18.283C9.01873 18.3102 9.23587 18.3373 9.45302 18.3554C9.96873 18.4006 10.4935 18.4278 11.0183 18.4278C11.534 18.4278 12.0497 18.4006 12.5563 18.3554C12.7463 18.3373 12.9363 18.3283 13.1173 18.3011C13.2621 18.283 13.4068 18.2649 13.5606 18.2468Z" fill="#FE7900"/>
</svg>
