<svg width="21" height="23" viewBox="0 0 21 23" fill="none" xmlns="http://www.w3.org/2000/svg">
<path d="M20.6692 15.1378C20.4278 13.3776 20.0657 10.7959 19.7036 8.91837C19.5829 8.09694 19.3415 7.15816 18.9795 6.33673C18.0139 2.58163 14.3932 0 10.4103 0C6.30676 0 2.68599 2.58163 1.72045 6.21939C1.47907 7.15816 1.23768 8.09694 0.996296 8.91837C0.634219 10.7959 0.272141 13.3776 0.0307565 15.1378C-0.210628 16.7806 0.996296 18.3061 2.68599 18.6582C3.89291 18.8929 5.46192 19.0102 7.03092 19.2449V19.7143C7.03092 21.4745 8.47923 23 10.4103 23C12.2207 23 13.7897 21.5918 13.7897 19.7143V19.2449C15.3587 19.1276 16.807 18.8929 18.1346 18.6582C19.7036 18.3061 20.9106 16.7806 20.6692 15.1378ZM11.8586 19.7143C11.8586 20.5357 11.1345 21.1224 10.4103 21.1224C9.68615 21.1224 8.84131 20.4184 8.84131 19.7143V19.3622C9.32407 19.3622 9.92754 19.3622 10.4103 19.3622C10.8931 19.3622 11.3758 19.3622 11.8586 19.3622V19.7143Z" fill="white"/>
</svg>
