<svg width="28" height="28" viewBox="0 0 28 28" fill="none" xmlns="http://www.w3.org/2000/svg">
<path d="M23.555 16.4033L22.2366 14.2099C21.945 13.7316 21.6883 12.8099 21.6883 12.2499V10.0683C21.6883 5.83327 18.2466 2.3916 14.0233 2.3916C9.78829 2.40327 6.34662 5.83327 6.34662 10.0683V12.2383C6.34662 12.7983 6.08995 13.7199 5.80995 14.1983L4.49162 16.3916C3.98995 17.2433 3.87329 18.2116 4.18829 19.0516C4.50329 19.9033 5.21495 20.5799 6.14828 20.8833C7.40828 21.3033 8.67995 21.6066 9.97495 21.8283C10.1033 21.8516 10.2316 21.8633 10.36 21.8866C10.5233 21.9099 10.6983 21.9333 10.8733 21.9566C11.1766 22.0033 11.48 22.0383 11.795 22.0616C12.53 22.1316 13.2766 22.1666 14.0233 22.1666C14.7583 22.1666 15.4933 22.1316 16.2166 22.0616C16.485 22.0383 16.7533 22.0149 17.01 21.9799C17.22 21.9566 17.43 21.9333 17.64 21.8983C17.7683 21.8866 17.8966 21.8633 18.025 21.8399C19.3316 21.6299 20.6266 21.3033 21.8866 20.8833C22.785 20.5799 23.4733 19.9033 23.7999 19.0399C24.1266 18.1649 24.0333 17.2083 23.555 16.4033ZM14.875 11.6666C14.875 12.1566 14.4783 12.5533 13.9883 12.5533C13.4983 12.5533 13.1016 12.1566 13.1016 11.6666V8.04994C13.1016 7.55994 13.4983 7.16327 13.9883 7.16327C14.4783 7.16327 14.875 7.55994 14.875 8.04994V11.6666Z" fill="#FE7900"/>
<path d="M17.3016 23.3452C16.8116 24.6985 15.5166 25.6668 14 25.6668C13.0783 25.6668 12.1683 25.2935 11.5266 24.6285C11.1533 24.2785 10.8733 23.8118 10.71 23.3335C10.8616 23.3568 11.0133 23.3685 11.1766 23.3918C11.445 23.4268 11.725 23.4618 12.005 23.4852C12.67 23.5435 13.3466 23.5785 14.0233 23.5785C14.6883 23.5785 15.3533 23.5435 16.0066 23.4852C16.2516 23.4618 16.4966 23.4502 16.73 23.4152C16.9166 23.3918 17.1033 23.3685 17.3016 23.3452Z" fill="#FE7900"/>
</svg>
