<svg width="14" height="18" viewBox="0 0 14 18" fill="none" xmlns="http://www.w3.org/2000/svg">
<path d="M8.1225 7.605C7.52576 7.605 6.95347 7.36795 6.53151 6.94599C6.10955 6.52403 5.8725 5.95174 5.8725 5.355V0H3.375C2.47989 0 1.62145 0.355579 0.988515 0.988515C0.355579 1.62145 0 2.47989 0 3.375V14.625C0 15.5201 0.355579 16.3786 0.988515 17.0115C1.62145 17.6444 2.47989 18 3.375 18H10.125C11.0201 18 11.8786 17.6444 12.5115 17.0115C13.1444 16.3786 13.5 15.5201 13.5 14.625V7.605H8.1225ZM9.1125 13.5L7.34625 15.2775C7.26822 15.3538 7.17666 15.4148 7.07625 15.4575C6.97326 15.5021 6.86223 15.5251 6.75 15.5251C6.63777 15.5251 6.52674 15.5021 6.42375 15.4575C6.32334 15.4148 6.23178 15.3538 6.15375 15.2775L4.3875 13.5C4.3079 13.4224 4.24463 13.3297 4.20144 13.2273C4.15824 13.1249 4.13598 13.0149 4.13598 12.9038C4.13598 12.7926 4.15824 12.6826 4.20144 12.5802C4.24463 12.4778 4.3079 12.3851 4.3875 12.3075C4.5457 12.1495 4.76016 12.0607 4.98375 12.0607C5.20735 12.0607 5.4218 12.1495 5.58 12.3075L5.90625 12.645V10.125C5.90625 9.90122 5.99515 9.68661 6.15338 9.52838C6.31161 9.37014 6.52622 9.28125 6.75 9.28125C6.97378 9.28125 7.18839 9.37014 7.34662 9.52838C7.50485 9.68661 7.59375 9.90122 7.59375 10.125V12.6L7.92 12.2625C8.0782 12.1045 8.29265 12.0157 8.51625 12.0157C8.73984 12.0157 8.9543 12.1045 9.1125 12.2625C9.19923 12.3406 9.26857 12.436 9.31604 12.5426C9.36351 12.6492 9.38804 12.7646 9.38804 12.8812C9.38804 12.9979 9.36351 13.1133 9.31604 13.2199C9.26857 13.3265 9.19923 13.4219 9.1125 13.5Z" fill="#FE7900"/>
<path d="M8.92125 5.90625H13.2075C13.2355 5.91123 13.2644 5.9064 13.2893 5.89258C13.3141 5.87875 13.3335 5.85678 13.344 5.83037C13.3546 5.80395 13.3558 5.7747 13.3473 5.74754C13.3388 5.72038 13.3212 5.69697 13.2975 5.68125L7.875 0.2025C7.85554 0.18509 7.83144 0.1737 7.80563 0.169708C7.77983 0.165717 7.75341 0.169296 7.7296 0.180012C7.70579 0.190729 7.68559 0.208122 7.67146 0.230085C7.65733 0.252047 7.64988 0.277636 7.65 0.30375V4.59C7.6498 4.93143 7.78228 5.25958 8.01948 5.50517C8.25667 5.75076 8.58002 5.89458 8.92125 5.90625Z" fill="#FE7900"/>
</svg>
