<svg width="24" height="24" viewBox="0 0 24 24" fill="none" xmlns="http://www.w3.org/2000/svg">
<path d="M20.831 9.00288C20.7619 8.93508 20.6689 8.89711 20.572 8.89711C20.4752 8.89711 20.3822 8.93508 20.313 9.00288L10.0883 19.2153C10.0756 19.233 10.0673 19.2536 10.0643 19.2752C10.0612 19.2968 10.0634 19.3188 10.0707 19.3394C10.0779 19.36 10.09 19.3785 10.106 19.3934C10.1219 19.4083 10.1412 19.4191 10.1623 19.425C11.7569 19.7556 13.4088 19.6829 14.9682 19.2134C16.5276 18.7438 17.945 17.8924 19.092 16.7362L22.0891 13.7391C22.3184 13.51 22.5004 13.2379 22.6245 12.9385C22.7486 12.639 22.8125 12.318 22.8125 11.9938C22.8125 11.6697 22.7486 11.3487 22.6245 11.0492C22.5004 10.7497 22.3184 10.4777 22.0891 10.2486L20.831 9.00288Z" fill="#D9D9D9"/>
<path d="M23.7295 0.27053C23.556 0.0973011 23.3209 0 23.0758 0C22.8306 0 22.5955 0.0973011 22.4221 0.27053L17.0445 5.68508C15.1619 4.59942 12.9736 4.16566 10.8192 4.45112C8.66482 4.73659 6.66495 5.72532 5.13006 7.26381L2.13294 10.2486C1.90359 10.4777 1.72164 10.7497 1.5975 11.0492C1.47336 11.3487 1.40947 11.6697 1.40947 11.9938C1.40947 12.318 1.47336 12.639 1.5975 12.9385C1.72164 13.2379 1.90359 13.51 2.13294 13.7391L5.13006 16.7362C5.26573 16.8719 5.42607 16.9952 5.57408 17.1185L0.27053 22.4221C0.0973011 22.5955 0 22.8306 0 23.0758C0 23.3209 0.0973011 23.556 0.27053 23.7295C0.443975 23.9027 0.679088 24 0.924223 24C1.16936 24 1.40447 23.9027 1.57792 23.7295L23.7788 1.52858C23.9337 1.35266 24.015 1.1239 24.0058 0.889687C23.9966 0.655479 23.8977 0.433781 23.7295 0.27053ZM8.96588 13.7267C8.67934 13.196 8.52691 12.6032 8.52186 12C8.51689 11.3749 8.67639 10.7595 8.98436 10.2156C9.29233 9.67158 9.73794 9.21817 10.2765 8.90079C10.815 8.58342 11.4275 8.41325 12.0526 8.40735C12.6777 8.40146 13.2933 8.56005 13.8377 8.86721L8.96588 13.7267Z" fill="#D9D9D9"/>
</svg>
