<svg width="22" height="15" viewBox="0 0 22 15" fill="none" xmlns="http://www.w3.org/2000/svg">
<path d="M20.7042 5.77845L17.7035 2.84455C16.7861 1.94278 15.6966 1.2274 14.4973 0.739315C13.298 0.251226 12.0125 0 10.7143 0C9.41606 0 8.13056 0.251226 6.93129 0.739315C5.73202 1.2274 4.6425 1.94278 3.72502 2.84455L0.724331 5.77845C0.494707 6.00364 0.312544 6.27106 0.188258 6.56542C0.0639719 6.85977 0 7.17529 0 7.49394C0 7.81258 0.0639719 8.1281 0.188258 8.42246C0.312544 8.71682 0.494707 8.98423 0.724331 9.20942L3.72502 12.1555C4.6425 13.0572 5.73202 13.7726 6.93129 14.2607C8.13056 14.7488 9.41606 15 10.7143 15C12.0125 15 13.298 14.7488 14.4973 14.2607C15.6966 13.7726 16.7861 13.0572 17.7035 12.1555L20.7042 9.20942C20.9339 8.98423 21.116 8.71682 21.2403 8.42246C21.3646 8.1281 21.4286 7.81258 21.4286 7.49394C21.4286 7.17529 21.3646 6.85977 21.2403 6.56542C21.116 6.27106 20.9339 6.00364 20.7042 5.77845ZM10.7143 11.028C10.0036 11.028 9.30882 10.821 8.71789 10.4334C8.12695 10.0457 7.66638 9.49474 7.3944 8.85009C7.12242 8.20544 7.05126 7.49609 7.18991 6.81173C7.32857 6.12737 7.67081 5.49875 8.17335 5.00535C8.6759 4.51196 9.31619 4.17596 10.0132 4.03983C10.7103 3.9037 11.4328 3.97357 12.0894 4.24059C12.746 4.50761 13.3073 4.9598 13.7021 5.53997C14.097 6.12014 14.3077 6.80224 14.3077 7.5C14.3077 8.43567 13.9291 9.33303 13.2552 9.99465C12.5813 10.6563 11.6673 11.028 10.7143 11.028Z" fill="#D9D9D9"/>
</svg>
