<svg width="54" height="49" viewBox="0 0 54 49" fill="none" xmlns="http://www.w3.org/2000/svg">
<g filter="url(#filter0_d_679_993)">
<path d="M32.3667 10.9167H16.6333C16.1667 10.9167 15.7333 10.9333 15.3333 10.95C11.3833 11.1833 10.3333 12.6333 10.3333 17.1333V18.1C10.3333 19.0167 11.0833 19.7667 12 19.7667H37C37.9167 19.7667 38.6667 19.0167 38.6667 18.1V17.1333C38.6667 12.1667 37.4 10.9167 32.3667 10.9167Z" fill="white"/>
<path d="M12 22.2667C11.0833 22.2667 10.3333 23.0167 10.3333 23.9333V28.7833C10.3333 33.75 11.6 35 16.6333 35H32.3667C37.3167 35 38.6167 33.8 38.6667 29.05V23.9333C38.6667 23.0167 37.9167 22.2667 37 22.2667H12ZM18.6 30.9333H15.75C15.0667 30.9333 14.5 30.3667 14.5 29.6833C14.5 29 15.0667 28.4333 15.75 28.4333H18.6167C19.3 28.4333 19.8667 29 19.8667 29.6833C19.8667 30.3667 19.3 30.9333 18.6 30.9333ZM27.9167 30.9333H22.1833C21.5 30.9333 20.9333 30.3667 20.9333 29.6833C20.9333 29 21.5 28.4333 22.1833 28.4333H27.9167C28.6 28.4333 29.1667 29 29.1667 29.6833C29.1667 30.3667 28.6167 30.9333 27.9167 30.9333Z" fill="white"/>
<path d="M43.6667 22.2167V13.4833C43.6667 8.26667 40.6833 6 36.1833 6H21.3C20.0333 6 18.9 6.18333 17.9 6.56667C17.1167 6.85 16.4167 7.26667 15.85 7.81667C15.55 8.1 15.7833 8.56667 16.2167 8.56667H34.3333C38.0833 8.56667 41.1167 11.6 41.1167 15.35V27.3C41.1167 27.7167 41.5667 27.95 41.8667 27.65C43.0167 26.4333 43.6667 24.65 43.6667 22.2167Z" fill="white"/>
</g>
<defs>
<filter id="filter0_d_679_993" x="0.333374" y="0" width="53.3333" height="49" filterUnits="userSpaceOnUse" color-interpolation-filters="sRGB">
<feFlood flood-opacity="0" result="BackgroundImageFix"/>
<feColorMatrix in="SourceAlpha" type="matrix" values="0 0 0 0 0 0 0 0 0 0 0 0 0 0 0 0 0 0 127 0" result="hardAlpha"/>
<feOffset dy="4"/>
<feGaussianBlur stdDeviation="5"/>
<feComposite in2="hardAlpha" operator="out"/>
<feColorMatrix type="matrix" values="0 0 0 0 0.996078 0 0 0 0 0.47451 0 0 0 0 0 0 0 0 0.5 0"/>
<feBlend mode="multiply" in2="BackgroundImageFix" result="effect1_dropShadow_679_993"/>
<feBlend mode="normal" in="SourceGraphic" in2="effect1_dropShadow_679_993" result="shape"/>
</filter>
</defs>
</svg>
