<svg width="15" height="79" viewBox="0 0 15 79" fill="none" xmlns="http://www.w3.org/2000/svg">
<path d="M7 13L7.00943 65" stroke="#9C9C9C" stroke-linecap="round" stroke-dasharray="3 3"/>
<circle cx="7.5" cy="7.5" r="5.5" fill="white" stroke="#14AE5C" stroke-width="4"/>
<path fill-rule="evenodd" clip-rule="evenodd" d="M7.5 62C9.73275 62 11.8796 62.974 13.3395 64.5677C14.5418 65.9844 15.1429 67.7552 14.9711 69.526C14.9309 69.6921 14.9095 69.8582 14.8893 70.0151C14.8664 70.1929 14.845 70.3589 14.7994 70.5C14.0265 74.2187 9.99038 77.4948 8.35875 78.7344C8.10113 78.9115 7.8435 79 7.5 79C7.1565 79 6.89887 78.9115 6.64125 78.7344C4.92375 77.4948 0.973491 74.2187 0.200615 70.5C0.11474 70.2344 0.0288651 69.8802 0.0288651 69.526C-0.142885 67.7552 0.458241 65.9844 1.66049 64.5677C3.12037 62.8854 5.26725 62 7.5 62ZM5.0955 69.7031C5.0955 71.1198 6.21187 72.1823 7.5 72.1823C8.78813 72.1823 9.9045 71.1198 9.9045 69.7031C9.9045 68.2865 8.874 67.224 7.5 67.224C6.126 67.224 5.0955 68.2865 5.0955 69.7031Z" fill="#EC221F"/>
</svg>
