<svg width="24" height="24" viewBox="0 0 24 24" fill="none" xmlns="http://www.w3.org/2000/svg">
<g clip-path="url(#clip0_788_588)">
<path d="M23.9069 10.4032L21.4284 6.07732C21.3465 5.93416 21.2167 5.82445 21.062 5.76743C21.0613 5.7672 21.0609 5.76687 21.0603 5.76668L12.3185 2.56296C12.1635 2.50618 11.9935 2.5057 11.8383 2.5616L2.94341 5.76532L2.9428 5.7657C2.786 5.82219 2.65442 5.93264 2.5716 6.07727L0.0930328 10.4032C0.0427167 10.491 0.0119551 10.5887 0.00285046 10.6895C-0.00625418 10.7903 0.00651276 10.8919 0.0402787 10.9873C0.0740447 11.0827 0.128014 11.1697 0.198497 11.2423C0.26898 11.315 0.354317 11.3716 0.448673 11.4082L2.47855 12.1961V17.5731C2.47855 17.7178 2.5232 17.859 2.60639 17.9774C2.68958 18.0958 2.80728 18.1856 2.94341 18.2346L11.7706 21.414C11.8633 21.4573 11.9643 21.4799 12.0665 21.4799C12.0681 21.4799 12.0696 21.4797 12.0711 21.4797C12.073 21.4797 12.0748 21.4799 12.0765 21.4799C12.1572 21.4799 12.2378 21.4661 12.3148 21.4384L21.2097 18.2346C21.3458 18.1856 21.4635 18.0958 21.5467 17.9774C21.6299 17.859 21.6745 17.7178 21.6745 17.5731V12.1367L23.5513 11.4082C23.6457 11.3716 23.731 11.315 23.8015 11.2424C23.872 11.1697 23.926 11.0827 23.9597 10.9873C23.9935 10.8919 24.0063 10.7903 23.9972 10.6895C23.988 10.5887 23.9573 10.491 23.9069 10.4032ZM12.0745 3.97123L18.7784 6.42809L12.0647 8.89788L5.25102 6.42888L12.0745 3.97123ZM3.49789 7.28932L11.0359 10.0208L9.1453 13.2756L1.71955 10.3931L3.49789 7.28932ZM3.8848 12.7421L9.19681 14.8041C9.27787 14.8356 9.36409 14.8518 9.45106 14.8519C9.57422 14.8519 9.69521 14.8195 9.80195 14.7581C9.90868 14.6967 9.99742 14.6083 10.0593 14.5018L11.3634 12.2567V19.7726L3.8848 17.0791V12.7421ZM20.2683 17.0791L12.7696 19.7799V12.378L13.933 14.4881C14.0152 14.6372 14.1487 14.7514 14.3087 14.8095C14.4688 14.8676 14.6444 14.8657 14.8032 14.8041L20.2683 12.6826V17.0791ZM14.8676 13.2706L13.0775 10.0237L20.5036 7.29185L22.2804 10.3931L14.8676 13.2706Z" fill="white"/>
</g>
<path d="M11.5 20V12L9.5 14.5L3.5 12.5V17L11.5 20Z" fill="white" stroke="white"/>
<path d="M12.5 20V12L14.5 14.5L20.5 12.5V17L12.5 20Z" fill="white" stroke="white"/>
<defs>
<clipPath id="clip0_788_588">
<rect width="24" height="24" fill="white"/>
</clipPath>
</defs>
</svg>
