<svg width="27" height="26" viewBox="0 0 27 26" fill="none" xmlns="http://www.w3.org/2000/svg">
<path d="M15.3709 1.38329L17.4785 5.68151C17.6574 6.04338 17.9215 6.35633 18.2482 6.5934C18.5749 6.83047 18.9543 6.98454 19.3538 7.04233L24.0835 7.72274C24.5435 7.78953 24.9756 7.98377 25.3309 8.28347C25.6862 8.58316 25.9504 8.97634 26.0938 9.41848C26.2371 9.86063 26.2538 10.3341 26.142 10.7852C26.0301 11.2364 25.7942 11.6472 25.4609 11.9712L22.0423 15.2903C21.7441 15.5768 21.5225 15.9335 21.3979 16.3278C21.2732 16.7221 21.2494 17.1414 21.3287 17.5472L22.1253 22.2603C22.2019 22.7165 22.1499 23.1851 21.9751 23.6134C21.8003 24.0417 21.5096 24.4128 21.1356 24.6851C20.7616 24.9574 20.3192 25.1201 19.8579 25.155C19.3966 25.1898 18.9347 25.0954 18.5241 24.8824L14.2922 22.6254C13.9337 22.4379 13.5351 22.3399 13.1305 22.3399C12.7259 22.3399 12.3274 22.4379 11.9689 22.6254L7.73703 24.8492C7.32639 25.0622 6.86452 25.1566 6.40322 25.1218C5.94193 25.0869 5.49948 24.9242 5.1255 24.6519C4.75152 24.3796 4.46082 24.0085 4.28601 23.5802C4.11119 23.1519 4.05919 22.6834 4.13583 22.2271L4.93241 17.5472C5.00303 17.149 4.9749 16.7396 4.85049 16.3548C4.72608 15.97 4.50918 15.6215 4.21881 15.34L0.80015 12.021C0.451885 11.6992 0.202743 11.2847 0.0820307 10.8262C-0.0386811 10.3677 -0.0259421 9.88429 0.11875 9.43278C0.263442 8.98127 0.534069 8.58047 0.898795 8.27754C1.26352 7.9746 1.70717 7.78212 2.17757 7.72274L6.90726 7.04233C7.30675 6.98454 7.68619 6.83047 8.01288 6.5934C8.33958 6.35633 8.60372 6.04338 8.78255 5.68151L10.8902 1.38329C11.0985 0.967557 11.4184 0.617984 11.814 0.373686C12.2097 0.129387 12.6655 0 13.1305 0C13.5956 0 14.0514 0.129387 14.4471 0.373686C14.8427 0.617984 15.1626 0.967557 15.3709 1.38329Z" fill="currentColor"/>
</svg>
