<svg width="60" height="60" viewBox="0 0 60 60" fill="none" xmlns="http://www.w3.org/2000/svg">
<rect x="0.833203" y="0.833203" width="58.3336" height="58.3336" rx="29.1668" stroke="white" stroke-width="1.66641"/>
<path d="M20.4831 43.3069C19.9295 43.4911 19.4224 43.6489 18.9717 43.7777C19.0459 43.7295 19.1143 43.6696 19.1741 43.5986C19.6524 43.0291 19.8949 42.4171 19.8949 41.7801C19.8949 41.262 19.7067 40.7849 19.3501 40.3997C19.0889 40.1175 18.6035 39.7812 17.7752 39.7812C17.2125 39.7812 16.624 39.9763 16.0259 40.3609C15.5143 40.6897 15.0341 41.0912 14.5987 41.5541C14.1602 42.0198 13.7898 42.5251 13.4982 43.0546C13.1617 43.6642 12.998 44.2114 12.998 44.7276C12.998 45.1393 13.1226 45.7576 13.7154 46.3663C13.8481 46.5025 13.9924 46.629 14.1476 46.7455C14.074 46.8664 14.0047 46.9919 13.9399 47.1221C13.6928 47.616 13.5334 48.0436 13.4523 48.4298C13.3638 48.8516 13.5828 49.2779 13.9773 49.4516L14.5812 49.7173C14.6999 49.7697 14.8248 49.7949 14.948 49.7949C15.2383 49.7949 15.5203 49.6556 15.6955 49.4056C15.8917 49.1249 16.1202 48.8501 16.3753 48.5882C16.5925 48.3649 16.8183 48.1939 17.0601 48.0734C17.4406 47.8758 17.9224 47.6904 18.4925 47.5226C19.1061 47.3415 19.6707 47.1864 20.1704 47.0615C20.452 46.9913 20.6833 46.7913 20.7932 46.5226L21.6148 44.5172C21.7498 44.1874 21.6805 43.8093 21.437 43.5491C21.1939 43.2887 20.8216 43.1937 20.4831 43.3069ZM17.6062 44.0332C17.4391 44.0332 17.255 44.0093 17.0605 43.9623C16.8749 43.9172 16.7076 43.8536 16.5636 43.7736C16.4521 43.7117 16.3644 43.6425 16.2954 43.5584C16.2958 43.5437 16.2968 43.5347 16.2962 43.532C16.3018 43.5271 16.3139 43.517 16.3361 43.5039C16.5153 43.3961 16.6858 43.344 16.8574 43.344C17.2436 43.344 17.5867 43.4682 17.9064 43.7239C18.0598 43.8466 18.2411 43.9118 18.4237 43.9223C18.1026 43.9961 17.8285 44.0332 17.6062 44.0332Z" fill="white"/>
<path d="M16.6982 38.0605C16.7372 38.5333 17.1323 38.9495 17.6067 38.9495H17.8484C18.1535 38.9495 18.4382 38.7446 18.6074 38.4908C18.802 38.1983 18.9899 37.8122 19.1815 37.3646C19.3673 36.9314 19.5403 36.4006 19.6962 35.8119C19.8492 35.2339 19.9782 34.579 20.0794 33.8786C20.182 33.1701 20.2338 32.3871 20.2338 31.5582C20.2338 31.3977 20.2257 31.1697 20.2083 30.8424L20.1359 29.5012C20.1028 28.894 20.0537 28.1016 19.9902 27.146C19.9257 26.1799 19.8453 24.9641 19.7487 23.4984C19.652 22.0338 19.5393 20.2828 19.4107 18.2459C19.2815 16.2084 19.1287 13.812 18.9515 11.0577C18.9258 10.6577 18.642 10.3214 18.252 10.2291C17.8621 10.1358 17.4573 10.3096 17.2549 10.6556L14.9355 14.6177C14.8407 14.7794 14.7982 14.9924 14.8136 15.1793L16.6982 38.0605Z" fill="white"/>
<path d="M27.5879 30.4151H27.0563C25.9245 30.4151 22.9317 30.3836 22.7217 32.2602C22.6515 32.6879 22.6172 33.3537 22.6172 34.3238C22.6172 34.8861 22.6393 35.3668 22.6828 35.767C22.737 36.2679 22.8726 36.6977 23.0852 37.0517C23.329 37.4588 23.6726 37.7593 24.1051 37.9477C24.4824 38.113 24.9418 38.1924 25.51 38.1924C26.1232 38.1924 26.8855 37.7928 28.0592 36.8577C28.0637 36.8543 28.0683 36.8504 28.0725 36.8468C29.2244 35.8935 29.7721 35.2283 29.9039 34.623C29.9054 34.6169 29.9066 34.6102 29.9076 34.604C30.0656 33.7986 30.1421 33.2237 30.1421 32.8384C30.1421 32.25 29.9871 31.8169 29.6816 31.4964C29.0244 30.7579 28.3198 30.4151 27.5879 30.4151Z" fill="white"/>
<path d="M46.6482 29.2153C46.4157 28.2856 46.0548 27.3319 45.575 26.38C45.0995 25.4381 44.5022 24.5054 43.7996 23.6073C43.0876 22.6983 42.2329 21.8562 41.2595 21.1043C41.2481 21.0955 41.2364 21.087 41.2245 21.0784C40.7472 20.7452 40.271 20.5762 39.8084 20.5762C39.3935 20.5762 39.0107 20.6964 38.6715 20.9329C38.2963 21.1939 38.0469 21.5704 37.9472 22.0375L37.2949 25.3716C37.2425 25.639 37.3125 25.9158 37.4857 26.1263C37.6589 26.3365 37.9171 26.4585 38.1896 26.4585C38.4281 26.4585 38.7381 26.5505 39.0865 26.7248C39.5054 26.9339 39.9401 27.2221 40.3776 27.5804C40.8285 27.9503 41.2721 28.3827 41.6957 28.8658C42.1203 29.3499 42.5018 29.86 42.8292 30.3804C43.1504 30.8918 43.412 31.4106 43.6068 31.9228C43.6958 32.1571 43.7626 32.3806 43.8074 32.5921C43.8033 32.593 43.7991 32.5939 43.7951 32.595C43.2898 32.7114 42.654 32.8339 41.9049 32.9588C41.1535 33.0841 40.3404 33.1913 39.4873 33.277C38.6446 33.3619 37.8667 33.405 37.175 33.405C36.5879 33.405 36.1049 33.3898 35.7386 33.3597C35.3773 33.3305 35.1949 33.2618 35.1181 33.2234C35.0603 33.1947 35.0528 33.1766 35.0454 33.1583C35.0227 33.1037 34.97 32.935 34.97 32.5531C34.97 32.1473 34.7019 31.7906 34.3123 31.6774L33.5632 31.46C33.0924 31.3231 32.5991 31.5827 32.4441 32.0473C32.3417 32.3547 32.2429 32.6851 32.1507 33.0296C32.0594 33.3699 31.9749 33.7115 31.9002 34.0443C31.8216 34.3933 31.7601 34.7276 31.7175 35.0362C31.6716 35.365 31.6484 35.6593 31.6484 35.9113C31.6484 36.5407 31.7454 37.0465 31.9449 37.4566C32.1718 37.9249 32.5408 38.2862 33.0425 38.5307C33.4593 38.7337 33.9647 38.8616 34.5878 38.9209C35.1222 38.9718 35.7893 38.9975 36.5705 38.9975C37.447 38.9975 38.3477 38.9511 39.248 38.8599C40.137 38.7694 40.978 38.652 41.7475 38.5114C42.5217 38.3699 43.2096 38.2178 43.7915 38.0596C44.421 37.8885 44.8797 37.7292 45.1932 37.5718C45.3693 37.4837 45.5121 37.3407 45.6003 37.1645C45.7359 36.8929 45.8813 36.5776 46.0444 36.2002C46.2088 35.8198 46.3626 35.3985 46.5018 34.947C46.6403 34.497 46.7582 34.0121 46.853 33.5049C46.9514 32.9752 47.0012 32.4192 47.0012 31.8524C47.0017 31.0406 46.8827 30.1534 46.6482 29.2153Z" fill="white"/>
</svg>
