<svg width="28" height="28" viewBox="0 0 28 28" fill="none" xmlns="http://www.w3.org/2000/svg">
<path d="M25.0835 18.083C25.4102 18.083 25.6668 18.3397 25.6668 18.6663V19.833C25.6668 21.7697 24.1035 23.333 22.1668 23.333C22.1668 21.408 20.5918 19.833 18.6668 19.833C16.7418 19.833 15.1668 21.408 15.1668 23.333H12.8335C12.8335 21.408 11.2585 19.833 9.3335 19.833C7.4085 19.833 5.8335 21.408 5.8335 23.333C3.89683 23.333 2.3335 21.7697 2.3335 19.833V17.4997C2.3335 16.858 2.8585 16.333 3.50016 16.333H14.5835C16.1935 16.333 17.5002 15.0263 17.5002 13.4163V6.99967C17.5002 6.35801 18.0252 5.83301 18.6668 5.83301H19.6468C20.4868 5.83301 21.2568 6.28801 21.6768 7.01134L22.4235 8.31801C22.5285 8.50467 22.3885 8.74967 22.1668 8.74967C20.5568 8.74967 19.2502 10.0563 19.2502 11.6663V15.1663C19.2502 16.7763 20.5568 18.083 22.1668 18.083H25.0835Z" fill="#FE7900"/>
<path d="M9.33333 25.6667C10.622 25.6667 11.6667 24.622 11.6667 23.3333C11.6667 22.0447 10.622 21 9.33333 21C8.04467 21 7 22.0447 7 23.3333C7 24.622 8.04467 25.6667 9.33333 25.6667Z" fill="#FE7900"/>
<path d="M18.6667 25.6667C19.9554 25.6667 21 24.622 21 23.3333C21 22.0447 19.9554 21 18.6667 21C17.378 21 16.3334 22.0447 16.3334 23.3333C16.3334 24.622 17.378 25.6667 18.6667 25.6667Z" fill="#FE7900"/>
<path d="M25.6667 14.6183V16.3333H22.1667C21.525 16.3333 21 15.8083 21 15.1667V11.6667C21 11.025 21.525 10.5 22.1667 10.5H23.6717L25.3633 13.4633C25.5617 13.8133 25.6667 14.21 25.6667 14.6183Z" fill="#FE7900"/>
<path d="M15.2602 2.30957H6.6385C4.2585 2.30957 2.3335 4.23457 2.3335 6.61457V14.0696C2.3335 14.7112 2.8585 15.2362 3.50016 15.2362H14.1752C15.3652 15.2362 16.3335 14.2679 16.3335 13.0779V3.3829C16.3335 2.7879 15.8552 2.30957 15.2602 2.30957ZM11.2002 10.6162C11.0252 10.7796 10.8035 10.8612 10.5818 10.8612C10.3602 10.8612 10.1385 10.7796 9.9635 10.6162L9.34516 9.9979L8.7035 10.6396C8.5285 10.8146 8.30683 10.8962 8.08516 10.8962C7.8635 10.8962 7.64183 10.8146 7.46683 10.6396C7.1285 10.3012 7.1285 9.74124 7.46683 9.4029L8.1085 8.76124L7.49016 8.1429C7.15183 7.80457 7.15183 7.24457 7.49016 6.90624C7.84016 6.5679 8.3885 6.5679 8.7385 6.90624L9.34516 7.52457L9.9285 6.92957C10.2785 6.59124 10.8268 6.59124 11.1768 6.92957C11.5152 7.27957 11.5152 7.8279 11.1768 8.1779L10.5818 8.76124L11.2002 9.3679C11.5385 9.7179 11.5385 10.2662 11.2002 10.6162Z" fill="#FE7900"/>
</svg>
