<svg width="36" height="36" viewBox="0 0 36 36" fill="none" xmlns="http://www.w3.org/2000/svg">
<rect width="36" height="36" rx="18" fill="#FE7900" fill-opacity="0.1"/>
<path d="M19.73 9.51063L21.49 13.0306C21.73 13.5206 22.37 13.9906 22.91 14.0806L26.1 14.6106C28.14 14.9506 28.62 16.4306 27.15 17.8906L24.67 20.3706C24.25 20.7906 24.02 21.6006 24.15 22.1806L24.86 25.2506C25.42 27.6806 24.13 28.6206 21.98 27.3506L18.99 25.5806C18.45 25.2606 17.56 25.2606 17.01 25.5806L14.02 27.3506C11.88 28.6206 10.58 27.6706 11.14 25.2506L11.85 22.1806C11.98 21.6006 11.75 20.7906 11.33 20.3706L8.85003 17.8906C7.39003 16.4306 7.86003 14.9506 9.90003 14.6106L13.09 14.0806C13.62 13.9906 14.26 13.5206 14.5 13.0306L16.26 9.51063C17.22 7.60063 18.78 7.60063 19.73 9.51063Z" fill="#FE7900"/>
</svg>
