<svg width="20" height="21" viewBox="0 0 20 21" fill="none" xmlns="http://www.w3.org/2000/svg">
<path fill-rule="evenodd" clip-rule="evenodd" d="M9.5122 3.29947C5.60446 3.29947 2.43902 6.43934 2.43902 10.3096C2.43902 14.1799 5.60446 17.3198 9.5122 17.3198C11.4618 17.3198 13.225 16.5396 14.5055 15.2746C15.7918 14.0039 16.5854 12.2496 16.5854 10.3096C16.5854 6.43934 13.4199 3.29947 9.5122 3.29947ZM0 10.3096C0 5.09986 4.26008 0.878906 9.5122 0.878906C14.7643 0.878906 19.0244 5.09986 19.0244 10.3096C19.0244 12.4823 18.2822 14.4846 17.0374 16.0787L19.6423 18.661C20.1188 19.1334 20.1193 19.8997 19.6433 20.3726C19.1673 20.8455 18.3952 20.8459 17.9187 20.3736L15.3094 17.787C13.7048 19.0113 11.6935 19.7403 9.5122 19.7403C4.26008 19.7403 0 15.5194 0 10.3096Z" fill="#D9D9D9"/>
</svg>
