<svg width="20" height="20" viewBox="0 0 20 20" fill="none" xmlns="http://www.w3.org/2000/svg">
<path fill-rule="evenodd" clip-rule="evenodd" d="M9.5122 2.43902C5.60446 2.43902 2.43902 5.60283 2.43902 9.50262C2.43902 13.4024 5.60446 16.5662 9.5122 16.5662C11.4618 16.5662 13.225 15.7801 14.5055 14.5055C15.7918 13.2251 16.5854 11.4574 16.5854 9.50262C16.5854 5.60283 13.4199 2.43902 9.5122 2.43902ZM0 9.50262C0 4.25314 4.26008 0 9.5122 0C14.7643 0 19.0244 4.25314 19.0244 9.50262C19.0244 11.6919 18.2822 13.7095 17.0374 15.3157L19.6423 17.9177C20.1188 18.3936 20.1193 19.1658 19.6433 19.6423C19.1673 20.1188 18.3952 20.1193 17.9187 19.6433L15.3094 17.037C13.7048 18.2706 11.6935 19.0052 9.5122 19.0052C4.26008 19.0052 0 14.7521 0 9.50262Z" fill="#D9D9D9"/>
</svg>
