<svg width="24" height="24" viewBox="0 0 24 24" fill="none" xmlns="http://www.w3.org/2000/svg">
<g filter="url(#filter0_d_963_1020)">
<path d="M15 3.41016H9C8.20435 3.41016 7.44129 3.72623 6.87868 4.28884C6.31607 4.85144 6 5.61451 6 6.41016V19.5802C6.00093 19.7602 6.05047 19.9367 6.14339 20.091C6.23631 20.2452 6.36917 20.3716 6.52792 20.4566C6.68668 20.5416 6.86545 20.5821 7.04535 20.574C7.22525 20.5658 7.3996 20.5092 7.55 20.4102L12 17.4102L16.45 20.4102C16.6004 20.5092 16.7748 20.5658 16.9547 20.574C17.1346 20.5821 17.3133 20.5416 17.4721 20.4566C17.6308 20.3716 17.7637 20.2452 17.8566 20.091C17.9495 19.9367 17.9991 19.7602 18 19.5802V6.41016C18 5.61451 17.6839 4.85144 17.1213 4.28884C16.5587 3.72623 15.7956 3.41016 15 3.41016ZM14 10.7502H12.75V12.0002C12.75 12.1991 12.671 12.3898 12.5303 12.5305C12.3897 12.6711 12.1989 12.7502 12 12.7502C11.8011 12.7502 11.6103 12.6711 11.4697 12.5305C11.329 12.3898 11.25 12.1991 11.25 12.0002V10.7502H10C9.80109 10.7502 9.61032 10.6711 9.46967 10.5305C9.32902 10.3898 9.25 10.1991 9.25 10.0002C9.25 9.80124 9.32902 9.61048 9.46967 9.46983C9.61032 9.32917 9.80109 9.25016 10 9.25016H11.25V8.00016C11.25 7.80124 11.329 7.61048 11.4697 7.46983C11.6103 7.32917 11.8011 7.25016 12 7.25016C12.1989 7.25016 12.3897 7.32917 12.5303 7.46983C12.671 7.61048 12.75 7.80124 12.75 8.00016V9.25016H14C14.1989 9.25016 14.3897 9.32917 14.5303 9.46983C14.671 9.61048 14.75 9.80124 14.75 10.0002C14.75 10.1991 14.671 10.3898 14.5303 10.5305C14.3897 10.6711 14.1989 10.7502 14 10.7502Z" fill="#FE7900"/>
</g>
<defs>
<filter id="filter0_d_963_1020" x="-4" y="-2.58984" width="32" height="37.165" filterUnits="userSpaceOnUse" color-interpolation-filters="sRGB">
<feFlood flood-opacity="0" result="BackgroundImageFix"/>
<feColorMatrix in="SourceAlpha" type="matrix" values="0 0 0 0 0 0 0 0 0 0 0 0 0 0 0 0 0 0 127 0" result="hardAlpha"/>
<feOffset dy="4"/>
<feGaussianBlur stdDeviation="5"/>
<feComposite in2="hardAlpha" operator="out"/>
<feColorMatrix type="matrix" values="0 0 0 0 0.980392 0 0 0 0 0.25098 0 0 0 0 0.25098 0 0 0 0.2 0"/>
<feBlend mode="normal" in2="BackgroundImageFix" result="effect1_dropShadow_963_1020"/>
<feBlend mode="normal" in="SourceGraphic" in2="effect1_dropShadow_963_1020" result="shape"/>
</filter>
</defs>
</svg>
