<svg width="50" height="50" viewBox="0 0 50 50" fill="none" xmlns="http://www.w3.org/2000/svg">
<rect width="50" height="50" rx="15" fill="#FE7900"/>
<path d="M30.1749 13.6998L18.8874 17.4498C11.2999 19.9873 11.2999 24.1248 18.8874 26.6498L22.2374 27.7623L23.3499 31.1123C25.8749 38.6998 30.0249 38.6998 32.5499 31.1123L36.3124 19.8373C37.9874 14.7748 35.2374 12.0123 30.1749 13.6998ZM30.5749 20.4248L25.8249 25.1998C25.6374 25.3873 25.3999 25.4748 25.1624 25.4748C24.9249 25.4748 24.6874 25.3873 24.4999 25.1998C24.1374 24.8373 24.1374 24.2373 24.4999 23.8748L29.2499 19.0998C29.6124 18.7373 30.2124 18.7373 30.5749 19.0998C30.9374 19.4623 30.9374 20.0623 30.5749 20.4248Z" fill="white"/>
</svg>
