<svg width="36" height="36" viewBox="0 0 36 36" fill="none" xmlns="http://www.w3.org/2000/svg">
<rect width="36" height="36" rx="18" fill="#FE7900" fill-opacity="0.1"/>
<path d="M26.1 15.2204C24.29 15.2204 23.55 13.9404 24.45 12.3704C24.97 11.4604 24.66 10.3004 23.75 9.78042L22.02 8.79042C21.23 8.32042 20.21 8.60042 19.74 9.39042L19.63 9.58042C18.73 11.1504 17.25 11.1504 16.34 9.58042L16.23 9.39042C15.78 8.60042 14.76 8.32042 13.97 8.79042L12.24 9.78042C11.33 10.3004 11.02 11.4704 11.54 12.3804C12.45 13.9404 11.71 15.2204 9.9 15.2204C8.86 15.2204 8 16.0704 8 17.1204V18.8804C8 19.9204 8.85 20.7804 9.9 20.7804C11.71 20.7804 12.45 22.0604 11.54 23.6304C11.02 24.5404 11.33 25.7004 12.24 26.2204L13.97 27.2104C14.76 27.6804 15.78 27.4004 16.25 26.6104L16.36 26.4204C17.26 24.8504 18.74 24.8504 19.65 26.4204L19.76 26.6104C20.23 27.4004 21.25 27.6804 22.04 27.2104L23.77 26.2204C24.68 25.7004 24.99 24.5304 24.47 23.6304C23.56 22.0604 24.3 20.7804 26.11 20.7804C27.15 20.7804 28.01 19.9304 28.01 18.8804V17.1204C28 16.0804 27.15 15.2204 26.1 15.2204ZM18 21.2504C16.21 21.2504 14.75 19.7904 14.75 18.0004C14.75 16.2104 16.21 14.7504 18 14.7504C19.79 14.7504 21.25 16.2104 21.25 18.0004C21.25 19.7904 19.79 21.2504 18 21.2504Z" fill="#FE7900"/>
</svg>
