<svg width="31" height="30" viewBox="0 0 31 30" fill="none" xmlns="http://www.w3.org/2000/svg">
<path d="M29.9631 12.0674L24.8566 2.90948C23.9555 1.23053 22.1532 0.162109 20.3509 0.162109H10.2881C8.3356 0.162109 6.6835 1.23053 5.78235 2.90948L0.67586 12.0674C-0.225286 13.7463 -0.225286 15.7305 0.67586 17.2568L5.78235 26.4147C6.6835 28.0937 8.48579 29.1621 10.2881 29.1621H20.3509C22.3034 29.1621 23.9555 28.0937 24.8566 26.4147L29.9631 17.2568C30.7141 15.7305 30.7141 13.5937 29.9631 12.0674ZM15.2444 20.4621C12.0904 20.4621 9.53713 17.8674 9.53713 14.6621C9.53713 11.4568 12.0904 8.86211 15.2444 8.86211C18.3984 8.86211 20.9516 11.4568 20.9516 14.6621C20.9516 17.8674 18.3984 20.4621 15.2444 20.4621Z" fill="currentColor"/>
</svg>
