<svg width="22" height="22" viewBox="0 0 22 22" fill="none" xmlns="http://www.w3.org/2000/svg">
<path d="M16.9174 3.91549L11.9412 2.05168C11.4255 1.86168 10.584 1.86168 10.0683 2.05168L5.09212 3.91549C4.13308 4.27739 3.35498 5.3993 3.35498 6.42168V13.7503C3.35498 14.4831 3.8345 15.4512 4.4226 15.8855L9.39879 19.6041C10.2764 20.2645 11.715 20.2645 12.5926 19.6041L17.5688 15.8855C18.1569 15.4422 18.6364 14.4831 18.6364 13.7503V6.42168C18.6455 5.3993 17.8674 4.27739 16.9174 3.91549ZM11.6788 11.7869V14.1664C11.6788 14.5374 11.3712 14.845 11.0002 14.845C10.6293 14.845 10.3216 14.5374 10.3216 14.1664V11.7869C9.40784 11.4974 8.73831 10.6469 8.73831 9.64263C8.73831 8.39406 9.75165 7.38073 11.0002 7.38073C12.2488 7.38073 13.2621 8.39406 13.2621 9.64263C13.2621 10.656 12.5926 11.4974 11.6788 11.7869Z" fill="#FE7900"/>
</svg>
