<svg width="20" height="20" viewBox="0 0 20 20" fill="none" xmlns="http://www.w3.org/2000/svg">
<path d="M17.1429 5.21429L2.85714 5.21429C1.59096 5.21429 0.5 4.20209 0.5 2.85714C0.5 1.5122 1.59096 0.499999 2.85714 0.499999L17.1429 0.5C18.409 0.5 19.5 1.5122 19.5 2.85714C19.5 4.20209 18.409 5.21429 17.1429 5.21429ZM12.0408 12.3571L2.85714 12.3571C1.59096 12.3571 0.5 11.3449 0.5 10C0.5 8.65506 1.59096 7.64286 2.85714 7.64286L12.0408 7.64286C13.307 7.64286 14.398 8.65506 14.398 10C14.398 11.3449 13.307 12.3571 12.0408 12.3571ZM17.1429 19.5L2.85714 19.5C1.59096 19.5 0.499999 18.4878 0.499999 17.1429C0.499999 15.7863 1.50063 14.7857 2.85714 14.7857L17.1429 14.7857C18.409 14.7857 19.5 15.7979 19.5 17.1429C19.5 18.4878 18.409 19.5 17.1429 19.5Z" fill="#FE7900" stroke="white"/>
</svg>
