<svg width="41" height="38" viewBox="0 0 41 38" fill="none" xmlns="http://www.w3.org/2000/svg">
<path d="M24.1305 2.08385L27.3055 8.55885C27.5749 9.10398 27.9728 9.57543 28.4649 9.93256C28.9571 10.2897 29.5287 10.5218 30.1305 10.6088L37.2555 11.6338C37.9484 11.7345 38.5993 12.0271 39.1345 12.4785C39.6697 12.93 40.0679 13.5223 40.2838 14.1884C40.4998 14.8544 40.5249 15.5677 40.3564 16.2473C40.188 16.9269 39.8325 17.5458 39.3305 18.0338L34.1805 23.0338C33.7313 23.4655 33.3975 24.0029 33.2097 24.5969C33.0219 25.1908 32.9861 25.8224 33.1055 26.4338L34.3055 33.5338C34.4209 34.2211 34.3426 34.9269 34.0792 35.5722C33.8159 36.2174 33.378 36.7764 32.8146 37.1866C32.2512 37.5968 31.5847 37.8419 30.8898 37.8944C30.1949 37.9469 29.4991 37.8048 28.8805 37.4838L22.5055 34.0838C21.9654 33.8013 21.365 33.6537 20.7555 33.6537C20.146 33.6537 19.5455 33.8013 19.0055 34.0838L12.6305 37.4338C12.0119 37.7548 11.3161 37.8969 10.6212 37.8444C9.92626 37.7919 9.25973 37.5468 8.69635 37.1366C8.13298 36.7264 7.69505 36.1674 7.43171 35.5222C7.16837 34.8769 7.09002 34.1711 7.20547 33.4838L8.40547 26.4338C8.51186 25.834 8.46948 25.2172 8.28206 24.6375C8.09465 24.0578 7.7679 23.5329 7.33047 23.1088L2.18047 18.1088C1.65583 17.6242 1.28052 16.9998 1.09867 16.3091C0.916827 15.6184 0.936017 14.8901 1.15399 14.2099C1.37196 13.5297 1.77964 12.926 2.32908 12.4696C2.87852 12.0133 3.54685 11.7233 4.25547 11.6338L11.3805 10.6088C11.9823 10.5218 12.5539 10.2897 13.046 9.93256C13.5382 9.57543 13.9361 9.10398 14.2055 8.55885L17.3805 2.08385C17.6943 1.45757 18.1762 0.930955 18.7722 0.562935C19.3683 0.194914 20.055 0 20.7555 0C21.456 0 22.1427 0.194914 22.7387 0.562935C23.3348 0.930955 23.8167 1.45757 24.1305 2.08385Z" fill="currentColor"/>
</svg>
