<svg width="60" height="60" viewBox="0 0 60 60" fill="none" xmlns="http://www.w3.org/2000/svg">
<g filter="url(#filter0_d_403_205)">
<circle cx="30" cy="26" r="20" fill="#14AE5C" fill-opacity="0.64" shape-rendering="crispEdges"/>
<circle cx="30" cy="26" r="19.5" stroke="white" shape-rendering="crispEdges"/>
</g>
<path d="M30 16C24.4898 16 20 20.4898 20 26C20 31.5102 24.4898 36 30 36C35.5102 36 40 31.5102 40 26C40 20.4898 35.5102 16 30 16ZM33.5714 24.4694L29.4898 28.551C29.2857 28.6531 29.1837 28.7551 28.9796 28.7551C28.7755 28.7551 28.5714 28.6531 28.4694 28.551L26.4286 26.5102C26.1224 26.2041 26.1224 25.6939 26.4286 25.3878C26.7347 25.0816 27.2449 25.0816 27.551 25.3878L29.0816 26.9184L32.6531 23.3469C32.9592 23.0408 33.4694 23.0408 33.7755 23.3469C33.8776 23.7551 33.8776 24.1633 33.5714 24.4694Z" fill="white"/>
<defs>
<filter id="filter0_d_403_205" x="0" y="0" width="60" height="60" filterUnits="userSpaceOnUse" color-interpolation-filters="sRGB">
<feFlood flood-opacity="0" result="BackgroundImageFix"/>
<feColorMatrix in="SourceAlpha" type="matrix" values="0 0 0 0 0 0 0 0 0 0 0 0 0 0 0 0 0 0 127 0" result="hardAlpha"/>
<feOffset dy="4"/>
<feGaussianBlur stdDeviation="5"/>
<feComposite in2="hardAlpha" operator="out"/>
<feColorMatrix type="matrix" values="0 0 0 0 0.0784314 0 0 0 0 0.682353 0 0 0 0 0.360784 0 0 0 0.4 0"/>
<feBlend mode="normal" in2="BackgroundImageFix" result="effect1_dropShadow_403_205"/>
<feBlend mode="normal" in="SourceGraphic" in2="effect1_dropShadow_403_205" result="shape"/>
</filter>
</defs>
</svg>
