<svg width="75" height="75" viewBox="0 0 75 75" fill="none" xmlns="http://www.w3.org/2000/svg">
<g opacity="0.4" filter="url(#filter0_f_3465_5851)">
<circle cx="37.5" cy="37.5" r="17.5" fill="#00DF80"/>
</g>
<path d="M36.2702 42.7379L43.8697 35.1384L42.3606 33.6293L36.2702 39.7196L33.1981 36.6475L31.689 38.1566L36.2702 42.7379ZM37.7794 48.5587C36.2882 48.5587 34.8869 48.2756 33.5754 47.7093C32.2639 47.1437 31.1231 46.3759 30.153 45.4057C29.1828 44.4356 28.415 43.2948 27.8494 41.9833C27.2831 40.6718 27 39.2705 27 37.7794C27 36.2882 27.2831 34.8869 27.8494 33.5754C28.415 32.2639 29.1828 31.1231 30.153 30.153C31.1231 29.1828 32.2639 28.4146 33.5754 27.8483C34.8869 27.2828 36.2882 27 37.7794 27C39.2705 27 40.6718 27.2828 41.9833 27.8483C43.2948 28.4146 44.4356 29.1828 45.4057 30.153C46.3759 31.1231 47.1437 32.2639 47.7093 33.5754C48.2756 34.8869 48.5587 36.2882 48.5587 37.7794C48.5587 39.2705 48.2756 40.6718 47.7093 41.9833C47.1437 43.2948 46.3759 44.4356 45.4057 45.4057C44.4356 46.3759 43.2948 47.1437 41.9833 47.7093C40.6718 48.2756 39.2705 48.5587 37.7794 48.5587Z" fill="#21C96F"/>
<defs>
<filter id="filter0_f_3465_5851" x="0" y="0" width="75" height="75" filterUnits="userSpaceOnUse" color-interpolation-filters="sRGB">
<feFlood flood-opacity="0" result="BackgroundImageFix"/>
<feBlend mode="normal" in="SourceGraphic" in2="BackgroundImageFix" result="shape"/>
<feGaussianBlur stdDeviation="10" result="effect1_foregroundBlur_3465_5851"/>
</filter>
</defs>
</svg>
