<svg width="28" height="29" viewBox="0 0 28 29" fill="none" xmlns="http://www.w3.org/2000/svg">
<path d="M24.5 15.0047V13.3434C24.5 10.5586 23.3938 7.8879 21.4246 5.91876C19.4555 3.94963 16.7848 2.84338 14 2.84338C11.2153 2.84338 8.54453 3.94963 6.5754 5.91876C4.60627 7.8879 3.50002 10.5586 3.50002 13.3434V15.0047C2.27638 15.5435 1.27496 16.4863 0.663416 17.6753C0.0518735 18.8643 -0.132672 20.2272 0.140674 21.536C0.41402 22.8448 1.12867 24.0199 2.16497 24.8647C3.20128 25.7096 4.49634 26.1727 5.83336 26.1767C6.4522 26.1767 7.04569 25.9309 7.48327 25.4933C7.92086 25.0557 8.16669 24.4622 8.16669 23.8434V16.8434C8.16669 16.2245 7.92086 15.6311 7.48327 15.1935C7.04569 14.7559 6.4522 14.5101 5.83336 14.5101V13.3434C5.83336 11.1775 6.69377 9.10023 8.22532 7.56868C9.75687 6.03713 11.8341 5.17672 14 5.17672C16.166 5.17672 18.2432 6.03713 19.7747 7.56868C21.3063 9.10023 22.1667 11.1775 22.1667 13.3434V14.5101C21.5479 14.5101 20.9544 14.7559 20.5168 15.1935C20.0792 15.6311 19.8334 16.2245 19.8334 16.8434V23.8434C19.8334 24.4622 20.0792 25.0557 20.5168 25.4933C20.9544 25.9309 21.5479 26.1767 22.1667 26.1767C23.5037 26.1727 24.7988 25.7096 25.8351 24.8647C26.8714 24.0199 27.586 22.8448 27.8594 21.536C28.1327 20.2272 27.9482 18.8643 27.3366 17.6753C26.7251 16.4863 25.7237 15.5435 24.5 15.0047Z" fill="#4A4A4B"/>
</svg>
