<svg width="28" height="24" viewBox="0 0 28 24" fill="none" xmlns="http://www.w3.org/2000/svg">
<path d="M24.5 12.4943V10.833C24.5 8.04824 23.3938 5.37752 21.4246 3.40839C19.4555 1.43925 16.7848 0.333008 14 0.333008C11.2153 0.333008 8.54453 1.43925 6.5754 3.40839C4.60627 5.37752 3.50002 8.04824 3.50002 10.833V12.4943C2.27638 13.0331 1.27496 13.976 0.663416 15.1649C0.0518735 16.3539 -0.132672 17.7168 0.140674 19.0256C0.41402 20.3344 1.12867 21.5096 2.16497 22.3544C3.20128 23.1992 4.49634 23.6623 5.83336 23.6663C6.4522 23.6663 7.04569 23.4205 7.48327 22.9829C7.92086 22.5453 8.16669 21.9518 8.16669 21.333V14.333C8.16669 13.7142 7.92086 13.1207 7.48327 12.6831C7.04569 12.2455 6.4522 11.9997 5.83336 11.9997V10.833C5.83336 8.66707 6.69377 6.58985 8.22532 5.0583C9.75687 3.52675 11.8341 2.66634 14 2.66634C16.166 2.66634 18.2432 3.52675 19.7747 5.0583C21.3063 6.58985 22.1667 8.66707 22.1667 10.833V11.9997C21.5479 11.9997 20.9544 12.2455 20.5168 12.6831C20.0792 13.1207 19.8334 13.7142 19.8334 14.333V21.333C19.8334 21.9518 20.0792 22.5453 20.5168 22.9829C20.9544 23.4205 21.5479 23.6663 22.1667 23.6663C23.5037 23.6623 24.7988 23.1992 25.8351 22.3544C26.8714 21.5096 27.586 20.3344 27.8594 19.0256C28.1327 17.7168 27.9482 16.3539 27.3366 15.1649C26.7251 13.976 25.7237 13.0331 24.5 12.4943Z" fill="currentColor"/>
</svg>
