<svg width="14" height="12" viewBox="0 0 14 12" fill="none" xmlns="http://www.w3.org/2000/svg">
<path d="M12.2501 6.24729V5.41663C12.2501 4.02424 11.6969 2.68888 10.7124 1.70432C9.72782 0.71975 8.39246 0.166626 7.00007 0.166626C5.60769 0.166626 4.27233 0.71975 3.28776 1.70432C2.3032 2.68888 1.75007 4.02424 1.75007 5.41663V6.24729C1.13825 6.5167 0.63754 6.9881 0.331769 7.58258C0.0259978 8.17706 -0.0662749 8.85854 0.0703982 9.51294C0.207071 10.1673 0.564394 10.7549 1.08255 11.1773C1.6007 11.5997 2.24823 11.8313 2.91674 11.8333C3.22616 11.8333 3.52291 11.7104 3.7417 11.4916C3.96049 11.2728 4.08341 10.976 4.08341 10.6666V7.16663C4.08341 6.85721 3.96049 6.56046 3.7417 6.34167C3.52291 6.12288 3.22616 5.99996 2.91674 5.99996V5.41663C2.91674 4.33366 3.34695 3.29505 4.11272 2.52927C4.87849 1.7635 5.91711 1.33329 7.00007 1.33329C8.08304 1.33329 9.12165 1.7635 9.88743 2.52927C10.6532 3.29505 11.0834 4.33366 11.0834 5.41663V5.99996C10.774 5.99996 10.4772 6.12288 10.2584 6.34167C10.0397 6.56046 9.91674 6.85721 9.91674 7.16663V10.6666C9.91674 10.976 10.0397 11.2728 10.2584 11.4916C10.4772 11.7104 10.774 11.8333 11.0834 11.8333C11.7519 11.8313 12.3994 11.5997 12.9176 11.1773C13.4358 10.7549 13.7931 10.1673 13.9297 9.51294C14.0664 8.85854 13.9741 8.17706 13.6684 7.58258C13.3626 6.9881 12.8619 6.5167 12.2501 6.24729Z" fill="#FFF4EB"/>
</svg>
