<svg width="36" height="36" viewBox="0 0 36 36" fill="none" xmlns="http://www.w3.org/2000/svg">
<rect width="36" height="36" rx="18" fill="#FE7900" fill-opacity="0.1"/>
<path d="M27.0112 18.437V17.0112C27.0112 14.6213 26.0618 12.3293 24.3719 10.6393C22.682 8.94939 20.3899 8 18 8C15.6101 8 13.318 8.94939 11.6281 10.6393C9.93817 12.3293 8.98878 14.6213 8.98878 17.0112V18.437C7.93863 18.8994 7.0792 19.7085 6.55437 20.7289C6.02954 21.7493 5.87116 22.919 6.10575 24.0422C6.34034 25.1654 6.95365 26.174 7.84302 26.899C8.73239 27.624 9.84383 28.0215 10.9913 28.0249C11.5224 28.0249 12.0317 27.814 12.4072 27.4384C12.7828 27.0629 12.9938 26.5535 12.9938 26.0224V20.015C12.9938 19.4839 12.7828 18.9745 12.4072 18.599C12.0317 18.2234 11.5224 18.0125 10.9913 18.0125V17.0112C10.9913 15.1524 11.7297 13.3697 13.0441 12.0553C14.3585 10.7409 16.1412 10.0025 18 10.0025C19.8588 10.0025 21.6415 10.7409 22.9559 12.0553C24.2703 13.3697 25.0087 15.1524 25.0087 17.0112V18.0125C24.4776 18.0125 23.9683 18.2234 23.5928 18.599C23.2172 18.9745 23.0062 19.4839 23.0062 20.015V26.0224C23.0062 26.5535 23.2172 27.0629 23.5928 27.4384C23.9683 27.814 24.4776 28.0249 25.0087 28.0249C26.1562 28.0215 27.2676 27.624 28.157 26.899C29.0463 26.174 29.6597 25.1654 29.8943 24.0422C30.1288 22.919 29.9705 21.7493 29.4456 20.7289C28.9208 19.7085 28.0614 18.8994 27.0112 18.437Z" fill="#FE7900"/>
</svg>
