<svg width="24" height="31" viewBox="0 0 24 31" fill="none" xmlns="http://www.w3.org/2000/svg">
<path d="M23.4919 6.81159C23.3363 4.80128 21.7806 3.25489 19.7581 2.94561C18.9802 2.94561 18.2023 2.79098 17.4244 2.79098L16.6466 1.39922C16.1798 0.626027 15.2464 0.162109 14.3129 0.162109H9.80125C8.8678 0.162109 8.08992 0.626027 7.46762 1.39922L6.53417 2.79098C5.75629 2.79098 4.97841 2.94561 4.20054 2.94561C2.17806 3.10025 0.622301 4.80128 0.466726 6.81159C0.155575 9.74974 0 14.0796 0 17.1724C0 20.2652 0.31115 23.6673 0.466726 25.9869C0.622301 27.9972 2.17806 29.5436 4.20054 29.6982C6.37859 29.8528 9.64568 30.1621 11.9793 30.1621C14.3129 30.1621 17.58 29.8528 19.7581 29.6982C21.7806 29.5436 23.3363 27.9972 23.4919 25.9869C23.6475 23.6673 23.9586 20.1106 23.9586 17.1724C24.1142 14.0796 23.803 9.74974 23.4919 6.81159ZM8.2455 4.33737C8.40107 4.33737 8.40107 4.33737 8.2455 4.33737L9.33453 2.4817C9.33453 2.32706 9.4901 2.32706 9.64568 2.32706H14.1574C14.3129 2.32706 14.3129 2.32706 14.4685 2.4817L15.5575 4.33737V4.49201C15.7131 4.64665 15.5575 4.95592 15.5575 5.11056C15.5575 5.2652 15.402 5.2652 15.2464 5.2652H8.71222C8.55665 5.2652 8.55665 5.2652 8.40107 5.11056C8.2455 4.80128 8.2455 4.64665 8.2455 4.33737ZM17.4244 14.3889L11.2014 20.5745C10.8903 20.7291 10.7347 20.8838 10.4236 20.8838C10.1124 20.8838 9.80125 20.7291 9.64568 20.5745L6.53417 17.4817C6.06744 17.0178 6.06744 16.2446 6.53417 15.7807C7.00089 15.3167 7.77877 15.3167 8.2455 15.7807L10.5791 18.1003L16.0243 12.6879C16.491 12.224 17.2689 12.224 17.7356 12.6879C17.8912 13.3064 17.8912 13.925 17.4244 14.3889Z" fill="#4A4A4B"/>
</svg>
