<svg width="24" height="24" viewBox="0 0 24 24" fill="none" xmlns="http://www.w3.org/2000/svg">
<path d="M5.12816 8.15385C5.12816 10.4103 5.12816 13.5897 5.12816 15.1282C5.23073 16.4615 5.33329 18.2051 5.43585 19.4359C5.53842 20.8718 6.76919 22 8.20509 22H15.7948C17.2307 22 18.4615 20.8718 18.5641 19.4359C18.6666 18.2051 18.7692 16.4615 18.8718 15.1282C18.9743 13.5897 18.8718 10.4103 18.8718 8.15385H5.12816Z" fill="#EC221F" fill-opacity="0.5"/>
<path d="M19.1795 5.07692H16.6154L15.7949 3.53846C15.282 2.61538 14.359 2 13.3333 2H10.8718C9.84614 2 8.8205 2.61538 8.41025 3.53846L7.3846 5.07692H4.8205C4.41025 5.07692 3.99999 5.48718 3.99999 5.89744C3.99999 6.30769 4.41025 6.71795 4.8205 6.71795H19.1795C19.5897 6.71795 20 6.41026 20 5.89744C20 5.38462 19.5897 5.07692 19.1795 5.07692ZM9.12819 5.07692L9.64101 4.25641C9.84614 3.84615 10.2564 3.53846 10.7692 3.53846H13.2308C13.7436 3.53846 14.1538 3.74359 14.359 4.25641L14.8718 5.07692H9.12819Z" fill="#EC221F" fill-opacity="0.5"/>
</svg>
