<svg width="20" height="21" viewBox="0 0 20 21" fill="none" xmlns="http://www.w3.org/2000/svg">
<path d="M17.5 6.10833C17.4833 6.10833 17.4583 6.10833 17.4333 6.10833C13.025 5.66667 8.62499 5.5 4.26666 5.94167L2.56666 6.10833C2.21666 6.14167 1.90832 5.89167 1.87499 5.54167C1.84166 5.19167 2.09166 4.89167 2.43332 4.85833L4.13332 4.69167C8.56666 4.24167 13.0583 4.41667 17.5583 4.85833C17.9 4.89167 18.15 5.2 18.1167 5.54167C18.0917 5.86667 17.8167 6.10833 17.5 6.10833Z" fill="#353535"/>
<path d="M7.08332 5.26667C7.04999 5.26667 7.01665 5.26667 6.97499 5.25834C6.64165 5.2 6.40832 4.875 6.46665 4.54167L6.64999 3.45C6.78332 2.65 6.96665 1.54167 8.90832 1.54167H11.0917C13.0417 1.54167 13.225 2.69167 13.35 3.45833L13.5333 4.54167C13.5917 4.88333 13.3583 5.20834 13.025 5.25834C12.6833 5.31667 12.3583 5.08333 12.3083 4.75L12.125 3.66667C12.0083 2.94167 11.9833 2.8 11.1 2.8H8.91665C8.03332 2.8 8.01665 2.91667 7.89165 3.65833L7.69999 4.74167C7.64999 5.05 7.38332 5.26667 7.08332 5.26667Z" fill="#353535"/>
<path d="M12.675 19.4583H7.325C4.41666 19.4583 4.3 17.85 4.20833 16.55L3.66666 8.15833C3.64166 7.81667 3.90833 7.51667 4.25 7.49167C4.6 7.475 4.89166 7.73333 4.91666 8.075L5.45833 16.4667C5.55 17.7333 5.58333 18.2083 7.325 18.2083H12.675C14.425 18.2083 14.4583 17.7333 14.5417 16.4667L15.0833 8.075C15.1083 7.73333 15.4083 7.475 15.75 7.49167C16.0917 7.51667 16.3583 7.80833 16.3333 8.15833L15.7917 16.55C15.7 17.85 15.5833 19.4583 12.675 19.4583Z" fill="#353535"/>
<path d="M11.3833 14.875H8.60834C8.26667 14.875 7.98334 14.5917 7.98334 14.25C7.98334 13.9083 8.26667 13.625 8.60834 13.625H11.3833C11.725 13.625 12.0083 13.9083 12.0083 14.25C12.0083 14.5917 11.725 14.875 11.3833 14.875Z" fill="#353535"/>
<path d="M12.0834 11.5417H7.91669C7.57502 11.5417 7.29169 11.2583 7.29169 10.9167C7.29169 10.575 7.57502 10.2917 7.91669 10.2917H12.0834C12.425 10.2917 12.7084 10.575 12.7084 10.9167C12.7084 11.2583 12.425 11.5417 12.0834 11.5417Z" fill="#353535"/>
</svg>
