<svg width="20" height="21" viewBox="0 0 20 21" fill="none" xmlns="http://www.w3.org/2000/svg">
<path d="M17.9167 13.5391C18.1501 13.5391 18.3334 13.7224 18.3334 13.9557V14.7891C18.3334 16.1724 17.2167 17.2891 15.8334 17.2891C15.8334 15.9141 14.7084 14.7891 13.3334 14.7891C11.9584 14.7891 10.8334 15.9141 10.8334 17.2891H9.16675C9.16675 15.9141 8.04175 14.7891 6.66675 14.7891C5.29175 14.7891 4.16675 15.9141 4.16675 17.2891C2.78341 17.2891 1.66675 16.1724 1.66675 14.7891V13.1224C1.66675 12.6641 2.04175 12.2891 2.50008 12.2891H10.4167C11.5667 12.2891 12.5001 11.3557 12.5001 10.2057V5.6224C12.5001 5.16406 12.8751 4.78906 13.3334 4.78906H14.0334C14.6334 4.78906 15.1834 5.11406 15.4834 5.63073L16.0167 6.56406C16.0917 6.6974 15.9917 6.8724 15.8334 6.8724C14.6834 6.8724 13.7501 7.80573 13.7501 8.95573V11.4557C13.7501 12.6057 14.6834 13.5391 15.8334 13.5391H17.9167Z" fill="#FE7900"/>
<path d="M6.66667 18.9554C7.58714 18.9554 8.33333 18.2092 8.33333 17.2887C8.33333 16.3683 7.58714 15.6221 6.66667 15.6221C5.74619 15.6221 5 16.3683 5 17.2887C5 18.2092 5.74619 18.9554 6.66667 18.9554Z" fill="#FE7900"/>
<path d="M13.3334 18.9554C14.2539 18.9554 15.0001 18.2092 15.0001 17.2887C15.0001 16.3683 14.2539 15.6221 13.3334 15.6221C12.4129 15.6221 11.6667 16.3683 11.6667 17.2887C11.6667 18.2092 12.4129 18.9554 13.3334 18.9554Z" fill="#FE7900"/>
<path d="M18.3333 11.0637V12.2887H15.8333C15.375 12.2887 15 11.9137 15 11.4554V8.9554C15 8.49707 15.375 8.12207 15.8333 8.12207H16.9083L18.1167 10.2387C18.2583 10.4887 18.3333 10.7721 18.3333 11.0637Z" fill="#FE7900"/>
<path d="M10.9001 2.28906H4.74175C3.04175 2.28906 1.66675 3.66406 1.66675 5.36406V10.6807C1.66675 11.1391 2.04175 11.5141 2.50008 11.5141H10.1251C10.9751 11.5141 11.6667 10.8224 11.6667 9.9724V3.05573C11.6667 2.63073 11.3251 2.28906 10.9001 2.28906ZM8.39175 6.51406L6.65008 8.1974C6.52508 8.31406 6.36675 8.3724 6.21675 8.3724C6.05841 8.3724 5.90008 8.31406 5.78341 8.1974L4.94175 7.3974C4.69175 7.15573 4.68341 6.75573 4.92508 6.50573C5.15841 6.25573 5.55841 6.25573 5.80841 6.48906L6.21675 6.88073L7.52508 5.61406C7.77508 5.3724 8.16675 5.38073 8.40841 5.63073C8.65008 5.88073 8.64175 6.2724 8.39175 6.51406Z" fill="#FE7900"/>
</svg>
