<svg width="24" height="25" viewBox="0 0 24 25" fill="none" xmlns="http://www.w3.org/2000/svg">
<g clip-path="url(#clip0_60_72)">
<path d="M9.97636 0.129186C12.6048 -0.243053 15.3341 0.190713 17.7244 1.35665C18.1123 1.56123 18.5567 1.71351 18.8454 2.06114C19.0638 2.34262 18.9111 2.73947 18.6896 2.9702C18.3979 3.23015 18.0206 3.01942 17.7259 2.88406C15.7893 1.87809 13.6205 1.24898 11.4288 1.34127C9.66632 1.41049 7.93588 1.93654 6.39178 2.78716C6.14436 2.91483 5.89541 3.06095 5.61744 3.10864C5.02638 3.07172 4.75299 2.16573 5.30587 1.86579C6.71404 0.96134 8.32535 0.379909 9.97636 0.129186Z" fill="white"/>
<path d="M11.1508 3.1194C11.4272 2.99635 11.7449 3.05941 12.0397 3.04403C14.4681 3.06249 16.9178 3.79158 18.8667 5.27439C19.8778 6.03732 20.7666 6.96638 21.5028 8.00004C21.7945 8.37843 21.5257 9.00447 21.0553 9.05215C20.6246 9.13983 20.3909 8.71529 20.1649 8.43227C18.1565 5.80506 14.8606 4.22381 11.5631 4.40532C10.8361 4.55144 10.4879 3.42857 11.1508 3.1194Z" fill="white"/>
<path d="M8.58958 3.48399C9.10122 3.19789 9.72283 3.74702 9.52734 4.29615C9.37766 4.78068 8.79882 4.77452 8.40783 4.93757C6.30321 5.60206 4.60791 7.18177 3.3937 8.99374C3.18446 9.29215 2.96606 9.65824 2.57049 9.71361C2.06648 9.69054 1.65258 9.08603 1.96873 8.63227C2.85304 7.43865 3.79385 6.25117 5.005 5.37441C6.10313 4.58071 7.30054 3.90545 8.58958 3.48399Z" fill="white"/>
<path d="M3.23631 3.58703C3.65021 3.23633 4.34819 3.61933 4.29015 4.1577C4.31459 4.62838 3.74796 5.00062 3.33711 4.75451C2.89878 4.55147 2.8438 3.86698 3.23631 3.58703Z" fill="white"/>
<path d="M10.7384 5.96814C13.15 5.57744 15.7098 6.21732 17.6418 7.73089C19.5693 9.20754 20.8049 11.5594 20.895 14.002C20.9316 15.2387 20.8736 16.5539 20.2489 17.6537C19.7556 18.552 18.685 19.0457 17.6861 18.9227C17.0935 18.8242 16.9652 17.9229 17.4967 17.6521C17.9015 17.4999 18.3749 17.5998 18.7537 17.3583C19.4456 16.9661 19.6777 16.1155 19.7342 15.371C19.8503 13.5037 19.3784 11.5548 18.2191 10.0705C17.2676 8.83684 15.8778 7.98469 14.3856 7.59399C12.2963 7.04025 9.95798 7.17868 8.07329 8.30617C5.94881 9.53978 4.57577 11.864 4.27795 14.2912C4.06565 15.7879 4.27795 17.3091 4.67657 18.755C4.78043 19.0596 4.77585 19.4456 4.49024 19.6502C4.13744 19.9579 3.53262 19.7394 3.45015 19.2795C2.73232 16.7585 2.63304 13.9728 3.62732 11.5102C4.78348 8.54612 7.66245 6.47881 10.7384 5.96814Z" fill="white"/>
<path d="M12.391 8.98448C12.7514 8.7076 13.3272 8.95833 13.4005 9.40132C13.5487 9.90584 12.9836 10.4288 12.5009 10.1935C12.0152 10.0043 11.9542 9.25981 12.391 8.98448Z" fill="white"/>
<path d="M14.8393 9.89204C15.0714 9.72438 15.4029 9.7413 15.6213 9.92588C17.0294 11.0149 17.9382 12.6977 18.1932 14.4574C18.2391 14.8634 18.3002 15.2941 18.1596 15.6879C17.8802 16.2047 16.9546 16.0232 16.9745 15.3941C16.8462 13.7344 16.0657 12.1424 14.8255 11.0411C14.4391 10.775 14.4422 10.1443 14.8393 9.89204Z" fill="white"/>
<path d="M22.0206 10.0674C22.4284 9.77359 23.0439 10.1258 23.0301 10.6227C23.0912 11.1503 22.4207 11.5486 22.0007 11.2195C21.6052 10.9657 21.6189 10.3058 22.0206 10.0674Z" fill="white"/>
<path d="M0.924037 10.8041C1.23255 10.618 1.66172 10.7749 1.81293 11.0949C1.98704 11.3948 1.80224 11.7194 1.72587 12.0162C1.45706 12.8099 1.36085 13.6467 1.2967 14.4789C1.26768 14.8711 0.812544 15.1541 0.449047 15.008C0.166496 14.9142 -0.0289984 14.6158 0.00307494 14.3158C0.0397302 13.3391 0.223006 12.3685 0.514721 11.4363C0.595667 11.1979 0.678142 10.9211 0.924037 10.8041Z" fill="white"/>
<path d="M10.8821 11.9516C11.2471 11.8563 11.6457 11.7178 12.0184 11.8378C12.498 12.0178 12.5636 12.753 12.1345 13.0253C11.7587 13.2022 11.3128 13.1591 10.9477 13.3714C10.2101 13.7421 9.80074 14.5819 9.79921 15.3926C9.8206 17.3568 10.488 19.3657 11.8763 20.7808C12.7927 21.7222 13.9336 22.4528 15.1875 22.845C15.5495 22.9389 15.9023 23.2788 15.7633 23.6864C15.7099 24.0786 15.2853 24.2586 14.9355 24.1525C13.115 23.8048 11.5755 22.5774 10.4575 21.1346C9.12567 19.3857 8.2658 17.1599 8.50865 14.9311C8.63541 13.5852 9.59303 12.3531 10.8821 11.9516Z" fill="white"/>
<path d="M23.0882 12.2208C23.5281 12.0162 24.0596 12.4392 23.9939 12.913C23.9893 13.3883 23.4074 13.7159 23.0058 13.4575C22.5308 13.2022 22.5796 12.4039 23.0882 12.2208Z" fill="white"/>
<path d="M13.7655 12.8115C14.2039 12.5331 14.6682 12.9268 14.8178 13.3406C15.0332 13.7897 15.192 14.2681 15.2684 14.7619C15.3112 15.4094 14.3795 15.7478 14.0191 15.2003C13.8022 14.7219 13.6983 14.1974 13.4983 13.7113C13.3425 13.396 13.4524 12.9791 13.7655 12.8115Z" fill="white"/>
<path d="M11.6288 14.8265C11.9816 14.5911 12.5528 14.7772 12.5651 15.2418C12.6521 16.1447 12.7743 17.0676 13.2249 17.8705C14.0099 19.3964 15.6792 20.3993 17.3852 20.3654C17.7518 20.3931 18.2176 20.2332 18.491 20.5669C18.8316 20.9238 18.6361 21.6021 18.1458 21.6944C15.8472 22.0621 13.4433 20.8254 12.2459 18.8411C11.6655 17.8982 11.3417 16.7953 11.3218 15.6863C11.3203 15.3833 11.3478 15.008 11.6288 14.8265Z" fill="white"/>
<path d="M15.2715 16.6446C15.7771 16.4093 16.3483 17.0199 16.1299 17.5229C16.0123 17.9551 15.4273 18.1351 15.0898 17.8429C14.6835 17.5368 14.7843 16.8015 15.2715 16.6446Z" fill="white"/>
<path d="M20.0367 19.4503C20.4949 19.1011 21.1883 19.6118 21.0447 20.1532C20.9867 20.6193 20.3895 20.89 20.0153 20.5962C19.6304 20.3409 19.6396 19.6887 20.0367 19.4503Z" fill="white"/>
<path d="M4.60328 20.9761C5.01718 20.6977 5.61894 21.05 5.60519 21.5437C5.65407 22.059 5.02329 22.4559 4.59412 22.1528C4.17411 21.9052 4.18633 21.2192 4.60328 20.9761Z" fill="white"/>
<path d="M9.96873 9.17524C10.2406 9.08295 10.5919 8.99527 10.821 9.226C11.2104 9.53364 11.0882 10.2535 10.598 10.3796C9.13177 10.8411 7.8855 11.9701 7.32498 13.416C6.88664 14.4804 6.9065 15.6663 7.03937 16.7923C7.19057 18.1151 7.64876 19.3841 8.28565 20.5455C8.59874 20.9961 8.13292 21.6729 7.60753 21.5468C7.08214 21.4299 6.9737 20.8054 6.74766 20.3947C5.91222 18.2797 5.27381 15.9109 5.88168 13.6483C6.40249 11.6009 7.95881 9.83358 9.96873 9.17524Z" fill="white"/>
<path d="M8.73766 22.3543C9.0309 22.1067 9.46007 22.2236 9.68306 22.5066C10.1718 22.9958 10.688 23.4557 11.2501 23.8571C11.7663 24.1894 11.4089 25.1 10.8041 24.9908C9.96255 24.6754 9.22945 24.0848 8.66435 23.3895C8.3986 23.1004 8.41234 22.5912 8.73766 22.3543Z" fill="white"/>
</g>
<defs>
<clipPath id="clip0_60_72">
<rect width="24" height="25" fill="white"/>
</clipPath>
</defs>
</svg>
