<svg width="33" height="27" viewBox="0 0 33 27" fill="none" xmlns="http://www.w3.org/2000/svg">
<path d="M22.5084 13.0034C22.8469 13.1722 23.3546 13.1722 23.8623 13.1722C26.9085 13.1722 29.4471 10.6397 29.4471 7.60075C29.4471 4.56179 26.9085 2.02933 23.8623 2.02933C23.693 2.02933 23.693 2.02933 23.5238 2.02933C24.5392 3.37997 25.0469 5.06829 25.0469 6.92543C25.0469 9.12023 24.2008 11.315 22.5084 13.0034Z" fill="#4A4A4B"/>
<path d="M26.0623 15.3672H24.8777C27.0777 17.0555 28.4316 19.7568 28.4316 22.7958C28.4316 23.4711 28.2624 24.1465 28.0931 24.8218C29.7855 24.4841 30.8009 24.1465 31.4778 23.8088C32.1548 23.4711 32.4933 22.627 32.4933 21.7828C32.6625 18.2374 29.6163 15.3672 26.0623 15.3672Z" fill="#4A4A4B"/>
<path d="M8.63106 13.1724C9.13877 13.1724 9.47724 13.1724 9.98495 13.0036C8.46183 11.3153 7.44641 9.28931 7.44641 6.75685C7.44641 4.8997 7.95412 3.21139 8.96953 1.86074C8.96953 1.86074 8.8003 1.86074 8.63106 1.86074C5.58482 1.86074 3.04628 4.39321 3.04628 7.43217C3.04628 10.4711 5.41558 13.1724 8.63106 13.1724Z" fill="#4A4A4B"/>
<path d="M7.44637 15.3672H6.43096C2.87701 15.3672 0 18.2374 0 21.7828C0 22.627 0.338471 23.4711 1.01541 23.8088C1.69236 24.1465 2.70777 24.6529 4.40013 24.8218C4.23089 24.1465 4.06166 23.4711 4.06166 22.7958C4.06166 19.9257 5.24631 17.2244 7.44637 15.3672Z" fill="#4A4A4B"/>
<path d="M12.3543 11.6529C13.3697 12.497 14.7236 13.0035 16.2467 13.0035C17.7698 13.0035 19.1237 12.497 20.1391 11.6529C21.6623 10.471 22.5084 8.78274 22.5084 6.75676C22.5084 5.23728 22.0007 3.7178 20.9853 2.70481C19.8007 1.35417 18.1083 0.51001 16.2467 0.51001C14.3851 0.51001 12.5235 1.35417 11.5081 2.70481C10.4927 3.7178 9.81576 5.23728 9.81576 6.75676C9.81576 8.78274 10.8312 10.471 12.3543 11.6529Z" fill="#4A4A4B"/>
<path d="M19.6312 15.7048C19.2927 15.7048 18.9542 15.7048 18.6158 15.7048H13.5387C13.2002 15.7048 12.8618 15.7048 12.5233 15.7048C8.96934 16.2113 6.26157 19.2503 6.26157 22.7957C6.26157 23.8087 6.76927 24.6529 7.44622 24.9905C8.63087 25.6659 11.0002 26.51 15.908 26.51C20.8158 26.51 23.1851 25.6659 24.3698 24.9905C25.216 24.484 25.5544 23.6399 25.5544 22.7957C26.0622 19.2503 23.1851 16.2113 19.6312 15.7048Z" fill="#4A4A4B"/>
</svg>
