<svg width="20" height="20" viewBox="0 0 20 20" fill="none" xmlns="http://www.w3.org/2000/svg">
<path d="M19.9857 9.41024C19.6457 3.61036 14.3758 -0.859531 8.30596 0.140447C4.12605 0.830432 0.776135 4.22034 0.126149 8.40025C-0.253842 10.8202 0.246169 13.1102 1.33614 15.0001L0.44615 18.31C0.246154 19.06 0.936119 19.74 1.6761 19.53L4.93604 18.63C6.41601 19.5 8.14597 20 9.99593 20C15.6358 20 20.3157 15.0301 19.9857 9.41024ZM14.8858 13.7201C14.7958 13.9001 14.6858 14.0701 14.5458 14.2301C14.2958 14.5001 14.0258 14.7001 13.7258 14.8201C13.4258 14.9501 13.0959 15.0101 12.7459 15.0101C12.2359 15.0101 11.6859 14.8901 11.1159 14.6401C10.5359 14.3901 9.96595 14.0601 9.39597 13.6501C8.81598 13.2301 8.27598 12.7602 7.75599 12.2502C7.236 11.7302 6.77598 11.1802 6.35599 10.6102C5.946 10.0402 5.61603 9.47022 5.37603 8.90024C5.13604 8.33025 5.01606 7.78028 5.01606 7.26029C5.01606 6.92029 5.07605 6.5903 5.19605 6.29031C5.31604 5.98031 5.50606 5.70032 5.77605 5.45033C6.09604 5.13034 6.44601 4.98034 6.81601 4.98034C6.956 4.98034 7.09597 5.01033 7.22597 5.07033C7.35597 5.13033 7.47599 5.22033 7.56599 5.35033L8.72594 6.99027C8.81594 7.12027 8.88595 7.23027 8.92595 7.34027C8.97594 7.45027 8.99595 7.55026 8.99595 7.65026C8.99595 7.77026 8.95597 7.89027 8.88597 8.01027C8.81597 8.13027 8.72594 8.25025 8.60594 8.37025L8.22595 8.77023C8.16595 8.83023 8.14599 8.89024 8.14599 8.97024C8.14599 9.01024 8.15595 9.05024 8.16595 9.09023C8.18595 9.13023 8.19599 9.16024 8.20599 9.19024C8.29599 9.36024 8.45595 9.57021 8.67595 9.83021C8.90594 10.0902 9.14598 10.3602 9.40598 10.6202C9.67597 10.8902 9.93595 11.1302 10.2059 11.3602C10.4659 11.5802 10.6859 11.7302 10.8559 11.8202C10.8859 11.8302 10.9159 11.8502 10.9459 11.8602C10.9859 11.8802 11.0259 11.8802 11.0759 11.8802C11.1659 11.8802 11.2259 11.8502 11.2859 11.7902L11.6659 11.4102C11.7959 11.2802 11.9159 11.1902 12.0259 11.1302C12.1459 11.0602 12.2559 11.0202 12.3859 11.0202C12.4859 11.0202 12.5859 11.0402 12.6959 11.0902C12.8059 11.1402 12.9259 11.2002 13.0458 11.2902L14.7058 12.4702C14.8358 12.5602 14.9258 12.6702 14.9858 12.7902C15.0358 12.9202 15.0658 13.0401 15.0658 13.1801C15.0058 13.3501 14.9658 13.5401 14.8858 13.7201Z" fill="#FE7900"/>
</svg>
