<svg width="20" height="24" viewBox="0 0 20 24" fill="none" xmlns="http://www.w3.org/2000/svg">
<path d="M18.838 10.8373L14.3317 16.9124L9.31046 23.2406C8.92421 23.7469 8.4092 24 7.76545 24C7.50795 24 7.37919 24 7.12169 23.8734C6.34919 23.6203 5.83418 22.8609 5.83418 22.1015V16.153H1.8429C1.0704 16.153 0.426643 15.7733 0.169141 15.0139C-0.0883608 14.3811 -0.0883605 13.6217 0.426643 12.9889L5.31918 6.91378L9.69671 0.838676C10.2117 0.205853 10.9842 -0.173841 11.8855 0.0792879C12.658 0.332417 13.173 1.0918 13.173 1.85119V7.79973H17.293C18.0655 7.79973 18.7093 8.17942 18.9668 8.81225C19.353 9.44507 19.2243 10.331 18.838 10.8373Z" fill="white"/>
</svg>
