<svg width="16" height="18" viewBox="0 0 16 18" fill="none" xmlns="http://www.w3.org/2000/svg">
<path d="M15.4252 8.2666V4.60827C15.4252 3.92493 14.9085 3.14993 14.2669 2.8916L9.62519 0.991602C8.58353 0.566602 7.40853 0.566602 6.36686 0.991602L1.7252 2.8916C1.09186 3.14993 0.575195 3.92493 0.575195 4.60827V8.2666C0.575195 12.3416 3.53353 16.1583 7.57519 17.2749C7.85019 17.3499 8.1502 17.3499 8.4252 17.2749C12.4669 16.1583 15.4252 12.3416 15.4252 8.2666ZM8.62519 9.72493V11.9166C8.62519 12.2583 8.34186 12.5416 8.0002 12.5416C7.65853 12.5416 7.3752 12.2583 7.3752 11.9166V9.72493C6.53353 9.45827 5.91686 8.67494 5.91686 7.74994C5.91686 6.59994 6.85019 5.6666 8.0002 5.6666C9.1502 5.6666 10.0835 6.59994 10.0835 7.74994C10.0835 8.68327 9.46686 9.45827 8.62519 9.72493Z" fill="#FBB63A"/>
</svg>
